<?xml version="1.0" encoding="UTF-8" standalone="no"?>
<!-- Created with Inkscape (http://www.inkscape.org/) -->

<svg
   xmlns:dc="http://purl.org/dc/elements/1.1/"
   xmlns:cc="http://creativecommons.org/ns#"
   xmlns:rdf="http://www.w3.org/1999/02/22-rdf-syntax-ns#"
   xmlns:svg="http://www.w3.org/2000/svg"
   xmlns="http://www.w3.org/2000/svg"
   xmlns:xlink="http://www.w3.org/1999/xlink"
   xmlns:sodipodi="http://sodipodi.sourceforge.net/DTD/sodipodi-0.dtd"
   xmlns:inkscape="http://www.inkscape.org/namespaces/inkscape"
   width="210mm"
   height="297mm"
   id="svg4199"
   version="1.1"
   inkscape:version="0.48.4 r9939"
   sodipodi:docname="fig-material-tape.svg"
   inkscape:export-filename="/home/masato/Documents/Projects/CRマニュアル/manual/figsource/fig-material-tape.png"
   inkscape:export-xdpi="149.86"
   inkscape:export-ydpi="149.86">
  <sodipodi:namedview
     id="base"
     pagecolor="#ffffff"
     bordercolor="#666666"
     borderopacity="1.0"
     inkscape:pageopacity="0.0"
     inkscape:pageshadow="2"
     inkscape:zoom="0.7"
     inkscape:cx="349.56472"
     inkscape:cy="565.77735"
     inkscape:document-units="px"
     inkscape:current-layer="layer1"
     showgrid="false"
     inkscape:window-width="687"
     inkscape:window-height="383"
     inkscape:window-x="282"
     inkscape:window-y="339"
     inkscape:window-maximized="0" />
  <defs
     id="defs4201">
    <marker
       style="overflow:visible"
       id="TriangleInS"
       refX="0.0"
       refY="0.0"
       orient="auto"
       inkscape:stockid="TriangleInS">
      <path
         transform="scale(-0.2)"
         style="fill-rule:evenodd;stroke:#000000;stroke-width:1.0pt"
         d="M 5.77,0.0 L -2.88,5.0 L -2.88,-5.0 L 5.77,0.0 z "
         id="path5314" />
    </marker>
    <marker
       inkscape:stockid="TriangleOutS"
       orient="auto"
       refY="0.0"
       refX="0.0"
       id="TriangleOutS"
       style="overflow:visible">
      <path
         id="path5323"
         d="M 5.77,0.0 L -2.88,5.0 L -2.88,-5.0 L 5.77,0.0 z "
         style="fill-rule:evenodd;stroke:#000000;stroke-width:1.0pt"
         transform="scale(0.2)" />
    </marker>
    <linearGradient
       id="linearGradient3955">
      <stop
         style="stop-color:#ffffff;stop-opacity:1;"
         offset="0"
         id="stop3957" />
      <stop
         style="stop-color:#cfcfcf;stop-opacity:1;"
         offset="1"
         id="stop3959" />
    </linearGradient>
    <radialGradient
       inkscape:collect="always"
       xlink:href="#linearGradient3955"
       id="radialGradient4647"
       gradientUnits="userSpaceOnUse"
       gradientTransform="matrix(1,0,0,0.56167403,-253.10726,393.52509)"
       cx="949.64441"
       cy="750.78113"
       fx="949.64441"
       fy="750.78113"
       r="160.51321" />
    <marker
       inkscape:stockid="TriangleOutSu"
       orient="auto"
       refY="0.0"
       refX="0.0"
       id="TriangleOutSu"
       style="overflow:visible">
      <path
         id="path5624"
         d="M 5.77,0.0 L -2.88,5.0 L -2.88,-5.0 L 5.77,0.0 z "
         style="stroke:#0052ff;stroke-width:1.0pt;fill:#0052ff;fill-rule:evenodd"
         transform="scale(0.2)" />
    </marker>
    <marker
       inkscape:stockid="TriangleOutSu"
       orient="auto"
       refY="0"
       refX="0"
       id="TriangleOutSu-9"
       style="overflow:visible">
      <path
         id="path5624-2"
         d="m 5.77,0 -8.65,5 0,-10 8.65,5 z"
         style="fill:#0052ff;fill-rule:evenodd;stroke:#0052ff;stroke-width:1pt"
         transform="scale(0.2,0.2)"
         inkscape:connector-curvature="0" />
    </marker>
    <marker
       style="overflow:visible"
       id="TriangleInSP"
       refX="0.0"
       refY="0.0"
       orient="auto"
       inkscape:stockid="TriangleInSP">
      <path
         transform="scale(-0.2)"
         style="stroke:#0052ff;stroke-width:1.0pt;fill:#0052ff;fill-rule:evenodd"
         d="M 5.77,0.0 L -2.88,5.0 L -2.88,-5.0 L 5.77,0.0 z "
         id="path6274" />
    </marker>
    <marker
       inkscape:stockid="TriangleOutSub"
       orient="auto"
       refY="0.0"
       refX="0.0"
       id="TriangleOutSub"
       style="overflow:visible">
      <path
         id="path6277"
         d="M 5.77,0.0 L -2.88,5.0 L -2.88,-5.0 L 5.77,0.0 z "
         style="fill-rule:evenodd;stroke:#0052ff;stroke-width:1.0pt;fill:#0052ff"
         transform="scale(0.2)" />
    </marker>
    <marker
       style="overflow:visible"
       id="TriangleOutSu-8"
       refX="0"
       refY="0"
       orient="auto"
       inkscape:stockid="TriangleOutSu">
      <path
         inkscape:connector-curvature="0"
         transform="scale(0.2,0.2)"
         style="fill:#0052ff;fill-rule:evenodd;stroke:#0052ff;stroke-width:1pt"
         d="m 5.77,0 -8.65,5 0,-10 8.65,5 z"
         id="path5624-9" />
    </marker>
    <marker
       style="overflow:visible"
       id="TriangleOutSu-3"
       refX="0"
       refY="0"
       orient="auto"
       inkscape:stockid="TriangleOutSu">
      <path
         inkscape:connector-curvature="0"
         transform="scale(0.2,0.2)"
         style="fill:#0052ff;fill-rule:evenodd;stroke:#0052ff;stroke-width:1pt"
         d="m 5.77,0 -8.65,5 0,-10 8.65,5 z"
         id="path5624-6" />
    </marker>
  </defs>
  <metadata
     id="metadata4204">
    <rdf:RDF>
      <cc:Work
         rdf:about="">
        <dc:format>image/svg+xml</dc:format>
        <dc:type
           rdf:resource="http://purl.org/dc/dcmitype/StillImage" />
        <dc:title></dc:title>
      </cc:Work>
    </rdf:RDF>
  </metadata>
  <g
     inkscape:label="レイヤー 1"
     inkscape:groupmode="layer"
     id="layer1">
    <g
       id="g4461"
       transform="translate(42.865848,436.01015)"
       inkscape:export-filename="/home/masato/Documents/Projects/CRマニュアル/manual/figsource/text5165.png"
       inkscape:export-xdpi="149.86"
       inkscape:export-ydpi="149.86">
      <path
         inkscape:connector-curvature="0"
         id="path5054-6"
         d="M 537.05345,130.54478 525.96438,108.98653"
         style="fill:none;stroke:none;display:inline" />
      <path
         inkscape:connector-curvature="0"
         id="path5052-7"
         d="m 532.01727,93.665261 c 0,0 -1.82235,7.077759 -5.77638,14.554629"
         style="fill:none;stroke:none;display:inline" />
      <path
         inkscape:connector-curvature="0"
         id="path5050-5"
         d="m 526.24089,108.21989 c -2.13045,4.02857 -4.87975,8.17301 -8.29628,11.38863"
         style="fill:none;stroke:none;display:inline" />
      <path
         inkscape:connector-curvature="0"
         id="path5048-3"
         d="m 532.17257,116.13474 c -3.71066,-18.495349 1.78087,-37.566619 13.92334,-52.682809"
         style="fill:none;stroke:none;display:inline" />
      <path
         inkscape:connector-curvature="0"
         id="path5046-5"
         d="m 546.09591,63.451931 c 4.87312,-6.06656 10.81748,-11.49609 17.66815,-15.99572 5.53878,-3.63796 11.67,-6.66806 18.3065,-8.93551"
         style="fill:none;stroke:none;display:inline" />
      <path
         inkscape:connector-curvature="0"
         id="path5044-6"
         d="m 582.07056,38.520701 0,0"
         style="fill:none;stroke:none;display:inline" />
      <path
         inkscape:connector-curvature="0"
         id="path5042-2"
         d="m 582.38282,38.414701 c 8.18596,-2.76071 16.46992,-4.13578 24.54504,-4.25474"
         style="fill:none;stroke:none;display:inline" />
      <path
         inkscape:connector-curvature="0"
         id="path5040-9"
         d="m 606.92786,34.159961 c 20.30808,-0.29919 39.29534,7.34606 52.0813,20.87507"
         style="fill:none;stroke:none;display:inline" />
      <path
         inkscape:connector-curvature="0"
         id="path5038-1"
         d="m 627.45708,123.65385 c -3.82812,3.32983 -8.42602,6.02733 -13.63253,7.80623 -1.55687,0.5319 -3.12095,0.9655 -4.68416,1.3044"
         style="fill:none;stroke:none;display:inline" />
      <path
         inkscape:connector-curvature="0"
         id="path5036-2"
         d="m 609.14039,132.76448 c -0.0122,0 -0.0245,0 -0.0367,0.01"
         style="fill:none;stroke:none;display:inline" />
      <path
         inkscape:connector-curvature="0"
         id="path5034-7"
         d="m 609.10369,132.77248 c -17.94935,3.8733 -35.77512,-4.7551 -41.22736,-20.71295 -0.57247,-1.67554 -0.9876,-3.37063 -1.25295,-5.07188"
         style="fill:none;stroke:none;display:inline" />
      <path
         inkscape:connector-curvature="0"
         id="path5032-0"
         d="m 566.62338,106.98765 c -0.38934,-2.49614 -0.45621,-5.00553 -0.22448,-7.485789"
         style="fill:none;stroke:none;display:inline" />
      <path
         inkscape:connector-curvature="0"
         id="path5030-9"
         d="m 566.3989,99.501861 c 1.24655,-13.34195 11.13372,-25.84095 25.94841,-30.90259 11.49903,-3.92881 23.3918,-2.49704 32.41801,2.91872"
         style="fill:none;stroke:none;display:inline" />
      <path
         inkscape:connector-curvature="0"
         id="path5028-3"
         d="m 624.76532,71.517991 c 2.13999,1.28399 4.11884,2.79193 5.89312,4.50546"
         style="fill:none;stroke:none;display:inline" />
      <path
         inkscape:connector-curvature="0"
         id="path5026-6"
         d="m 630.65844,76.023451 c 3.39753,3.2812 6.04492,7.31626 7.63711,11.97637 4.34285,12.710859 -0.36896,26.547359 -10.83844,35.654079"
         style="fill:none;stroke:none;display:inline" />
      <path
         inkscape:connector-curvature="0"
         id="path5024-0"
         d="m 645.14921,107.63235 c -3.76782,13.02239 -14.45611,24.48043 -29.36165,29.57303 -10.8963,3.7229 -22.09151,3.3763 -31.60276,-0.2025"
         style="fill:none;stroke:none;display:inline" />
      <path
         inkscape:connector-curvature="0"
         id="path5022-6"
         d="m 584.1848,137.00288 c -10.56547,-3.9755 -19.053,-11.9395 -22.74462,-22.74435 -1.27831,-3.74143 -1.89336,-7.56532 -1.90524,-11.36492"
         style="fill:none;stroke:none;display:inline" />
      <path
         inkscape:connector-curvature="0"
         id="path5020-2"
         d="m 559.53494,102.89361 c -0.008,-2.64811 0.27641,-5.284399 0.83372,-7.872769 3.03128,-14.07826 14.12774,-26.7386 30.01568,-32.16693 11.8508,-4.04899 24.05516,-3.28433 34.06217,1.2169"
         style="fill:none;stroke:none;display:inline" />
      <path
         inkscape:connector-curvature="0"
         id="path5018-6"
         d="m 624.44651,64.070811 c 2.51099,1.12946 4.88362,2.49418 7.07761,4.07716"
         style="fill:none;stroke:none;display:inline" />
      <path
         inkscape:connector-curvature="0"
         id="path5016-1"
         d="m 631.52412,68.147971 c 6.03228,4.35232 10.71403,10.35449 13.20761,17.65283 l 0,0 0,0 c 2.46884,7.22594 2.46368,14.759429 0.41748,21.831549"
         style="fill:none;stroke:none;display:inline" />
      <path
         inkscape:connector-curvature="0"
         id="path5014-8"
         d="m 517.98912,119.44418 -0.75761,-3.03046 -3.78807,-0.50507 3.28299,-4.79823 -4.04061,0.63135 1.89404,-5.05077 -4.9245,0.25254 2.14658,-4.41942 -3.91434,-0.12626 1.6415,-3.788089 -4.29315,-0.88388 1.76776,-3.40926 -4.29314,-1.01016 0.23407,-2.62648 c 9.75747,-9.18367 14.30739,-27.08439 14.30739,-27.08439 5.36078,-24.29013 23.6665,-45.0682 49.81856,-54.0034199 34.87864,-11.91677 71.60832,1.3675399 86.82447,30.5947599 l 15.58544,30.1951"
         style="fill:none;stroke:none;display:inline" />
      <path
         inkscape:connector-curvature="0"
         id="path5012-7"
         d="m 609.14016,132.59688 c -0.0129,0 -0.0258,0.01 -0.0388,0.013 l 0,0"
         style="fill:none;stroke:none;display:inline" />
      <path
         inkscape:connector-curvature="0"
         id="path5010-9"
         d="m 630.80017,76.124111 c -3.03567,14.07258 -14.13002,26.726259 -30.01263,32.152769 -11.85203,4.04941 -24.0577,3.28418 -34.06529,-1.21829"
         style="fill:none;stroke:none;display:inline" />
      <path
         inkscape:connector-curvature="0"
         id="path4723-2"
         d="m 659.00917,55.035121 c 5.70769,6.0394 10.17961,13.25128 12.98162,21.45234 l 0,0 c 11.60651,33.970479 -9.83435,72.049219 -47.88943,85.051319 -38.05509,13.002 -78.31375,-3.9962 -89.92023,-37.96672 -0.84091,-2.46121 -1.50834,-4.94399 -2.00855,-7.43723"
         style="fill:none;stroke:none;display:inline" />
      <path
         inkscape:connector-curvature="0"
         id="path5074-0"
         d="m 591.23458,5.4396511 c -9.90133,0.0677 -19.71794,2.40298 -28.87907,6.0652399 -12.76273,5.17907 -23.96847,13.97144 -32.37189,24.852 -5.2507,6.95827 -9.14321,14.90128 -11.53107,23.28338 -2.1388,8.13482 -4.9235,16.10108 -9.37297,23.27541 -1.62426,2.94105 -3.94015,5.35467 -5.87625,8.05522 -0.40706,1.02201 -0.36377,2.79914 1.16853,2.63614 0.7863,0.29926 2.16993,0.31395 2.65178,0.77011 -0.33749,1.04687 -1.22686,1.97002 -1.25781,3.07031 1.05742,0.81094 2.7496,0.54808 3.8125,1.20313 -0.27053,1.19619 -1.18627,2.221349 -1.3125,3.437509 0.9743,0.58927 2.61638,-0.0905 3.52344,0.40625 -0.38646,1.33435 -1.17457,2.52046 -1.57032,3.84375 0.59634,0.95286 2.10463,0.13048 3.03842,0.31015 2.31097,-0.76175 0.87021,1.25704 0.50846,2.50235 -0.20163,0.63274 -1.13026,2.25251 0.20312,2.1875 0.91077,0.0584 2.25589,-0.40229 2.85157,-0.24219 -0.83345,1.53586 -2.23156,2.85272 -2.8125,4.46875 0.69233,1.03155 2.62445,0.10392 3.38281,1.09375 0.33654,0.65754 0.11539,2.45523 1.26562,2.02344 6.78123,-7.03021 10.69621,-16.29789 13.33845,-25.561599 2.53077,-12.26509 8.4346,-23.84259 16.91156,-32.98529 7.81002,-8.72067 17.80767,-15.52282 28.66406,-19.98437 1.27225,-0.53613 2.64807,-1.14345 3.9375,-1.44531 -7.07464,2.93565 -14.16439,6.11618 -20.31143,10.74609 -15.52866,10.91881 -26.90743,28.09315 -29.47099,47.04565 -0.73885,5.751629 -0.59116,11.627729 0.14696,17.368379 2.71863,16.38848 12.52127,31.45248 26.53777,40.37218 10.82745,6.9569 23.55059,11.0464 36.44916,11.4402 7.44023,0.1506 14.91686,-0.3112 22.1329,-2.2069 22.35952,-5.3213 42.5419,-20.6937 52.16266,-41.76645 7.4454,-15.93546 7.93935,-35.234619 0.25141,-51.186649 -4.47571,-9.54102 -11.59601,-17.76031 -20.22989,-23.78162 -15.60868,-10.78087 -35.55104,-14.54158 -54.14511,-11.31213 -4.13215,0.57632 -8.26445,1.84674 -12.21094,2.82031 5.81257,-2.04163 11.96052,-3.18118 18.08455,-3.82627 8.49917,-0.51954 17.12748,-0.32177 25.39236,1.86347 12.56365,3.13681 24.36524,9.669 33.14028,19.18936 1.01677,0.84427 1.80272,2.16665 2.96093,2.71875 0.92713,-0.64671 -0.51875,-1.81401 -0.64062,-2.60937 -3.66456,-6.95124 -7.15288,-14.02832 -11.17188,-20.77344 -9.45028,-14.43702 -25.04531,-24.28763 -41.84785,-27.7629799 -5.74308,-1.32846 -11.62229,-1.662 -17.50371,-1.60421 z m 14.69531,54.6953099 c 8.21747,0.027 16.50527,2.16334 23.44061,6.52761 9.58435,5.77443 16.31475,16.26649 17.15089,27.45641 0.47246,6.369019 -0.48103,12.815479 -3.21606,18.596189 -5.28699,12.02715 -16.15606,21.06311 -28.62544,24.87291 -8.25825,2.591 -17.27729,3.1733 -25.70381,0.9408 -11.59745,-2.761 -21.91687,-10.754 -26.66223,-21.81035 -2.58021,-5.79338 -3.13918,-12.3504 -2.53239,-18.646069 1.80191,-13.65576 11.0872,-25.66946 23.13572,-32.03359 7.04038,-3.79179 15.01256,-5.76788 23.01271,-5.90391 z"
         style="fill:#aff0b4;fill-opacity:1;stroke:none;display:inline" />
      <path
         inkscape:connector-curvature="0"
         id="path5076-2"
         d="m 605.06899,60.496351 c -8.63805,-0.0436 -17.19541,2.68593 -24.53125,7.14844 -10.70685,6.66094 -19.05106,17.89456 -20.52344,30.61719 -0.53807,5.741659 -0.26703,11.666789 1.96875,17.046879 4.82121,12.86302 17.37871,21.82092 30.78575,23.82962 9.63697,1.4159 19.68475,-0.041 28.44046,-4.3111 12.77845,-6.036 22.89088,-18.26573 24.91129,-32.43099 0.6081,-5.844489 0.39561,-11.898279 -1.84844,-17.400039 -3.3874,-9.47193 -11.12455,-16.98986 -20.29961,-20.92414 -5.79378,-2.63574 -12.1826,-3.83315 -18.54412,-3.57839 l -0.24999,0.002 -0.1094,7.7e-4 z m -0.46094,5.89844 c 11.68836,-0.45782 23.77564,4.76795 30.28043,14.67958 3.29561,4.95103 5.22147,10.82511 4.95395,16.81261 0.24739,10.267509 -5.35659,19.954739 -13.08594,26.429689 -11.39483,9.47221 -28.29044,12.36871 -41.85156,6.10941 -9.61103,-4.21163 -17.24129,-13.54567 -18.40316,-24.11639 -0.39378,-5.20143 -0.22468,-10.555759 1.90622,-15.398519 4.31543,-11.43948 14.71874,-20.01037 26.45787,-23.11013 3.16323,-0.90625 6.43174,-1.40267 9.74219,-1.40625 z"
         style="fill:#ad9475;fill-opacity:1;stroke:none;display:inline" />
      <path
         inkscape:connector-curvature="0"
         id="path5078-3"
         d="m 631.02993,77.152601 c -1.18313,1.79281 -1.47314,4.11573 -2.46094,6.03906 -5.69571,13.67883 -18.75143,23.430749 -32.99322,26.627749 -5.29672,1.34342 -10.84532,0.91497 -16.26388,0.79095 -4.19452,-0.39518 -8.21701,-1.8124 -12.11732,-3.17512 -0.63487,0.78857 0.19145,2.1513 0.32958,3.12855 1.69518,5.3995 4.64586,10.46185 9.0076,14.14496 6.69447,6.07933 15.95798,9.09863 24.95893,8.82503 14.5659,-0.3502 28.98155,-8.86932 35.19458,-22.23142 5.01681,-10.18417 3.75774,-23.185099 -3.32721,-32.071629 -0.68328,-0.64219 -1.24903,-2.13025 -2.32812,-2.07813 z"
         style="fill:#d4bd9e;fill-opacity:1;stroke:none;display:inline" />
      <path
         inkscape:connector-curvature="0"
         id="path5080-7"
         d="m 530.43038,98.666961 c -1.58356,3.114309 -2.71434,6.705639 -4.33316,9.896959 1.81599,4.47858 4.02984,8.98651 6.42171,13.19595 1.60077,0.25582 0.29772,-2.38738 0.37211,-3.32467 -1.51175,-6.35257 -1.07569,-13.1027 -1.8365,-19.562869 -0.12201,-0.21835 -0.40704,-0.32906 -0.62416,-0.20537 z"
         style="fill:#aff0b4;fill-opacity:1;stroke:none;display:inline" />
      <path
         id="path4796-5"
         style="fill:none;stroke:#000000;stroke-width:1px;stroke-linecap:butt;stroke-linejoin:miter;stroke-opacity:1;display:inline"
         d="m 537.05345,130.54478 -11.08907,-21.55825 m 6.05289,-15.321269 c 0,0 -1.82235,7.077759 -5.77638,14.554629 m 0,0 c -2.13045,4.02857 -4.87975,8.17301 -8.29628,11.38863 m 14.22796,-3.47378 c -3.71066,-18.495349 1.78087,-37.566619 13.92334,-52.682809 m 0,0 c 4.87312,-6.06656 10.81748,-11.49609 17.66815,-15.99572 5.53878,-3.63796 11.67,-6.66806 18.38456,-8.96201 8.42016,-2.84021 16.70412,-4.21528 24.77924,-4.33424 m 0,0 c 20.30808,-0.29919 39.29534,7.34606 52.0813,20.87507 m -31.55208,68.618819 c -3.82812,3.32983 -8.42602,6.02733 -13.63253,7.80623 -1.55687,0.5319 -3.12095,0.9655 -4.68416,1.3044 m 0,0 c -0.0122,0 -0.0245,0 -0.0367,0.01 m 0,0 c -17.94935,3.8733 -35.77512,-4.7551 -41.22736,-20.71295 -0.57247,-1.67554 -0.9876,-3.37063 -1.25295,-5.07188 m 0,0 c -0.38934,-2.49614 -0.45621,-5.00553 -0.22448,-7.485789 m 0,0 c 1.24655,-13.34195 11.13372,-25.84095 25.94841,-30.90259 11.49903,-3.92881 23.3918,-2.49704 32.41801,2.91872 m 0,0 c 2.13999,1.28399 4.11884,2.79193 5.89312,4.50546 m 0,0 c 3.39753,3.2812 6.04492,7.31626 7.63711,11.97637 4.34285,12.710859 -0.36896,26.547359 -10.83844,35.654079 m 17.6921,-16.02155 c -3.76782,13.02239 -14.45611,24.48043 -29.36165,29.57303 -10.8963,3.7229 -22.09151,3.3763 -31.60276,-0.2025 m 0,0 c -10.56547,-3.9755 -19.053,-11.9395 -22.74462,-22.74435 -1.27831,-3.74143 -1.89336,-7.56532 -1.90524,-11.36492 m 0,0 c -0.008,-2.64811 0.27641,-5.284399 0.83372,-7.872769 3.03128,-14.07826 14.12774,-26.7386 30.01568,-32.16693 11.8508,-4.04899 24.05516,-3.28433 34.06217,1.2169 m 0,0 c 2.51099,1.12946 4.88362,2.49418 7.07761,4.07716 m 0,0 c 6.03228,4.35232 10.71403,10.35449 13.20761,17.65283 l 0,0 0,0 c 2.46884,7.22594 2.46368,14.759429 0.41748,21.831549 m -127.16009,11.81183 -0.75761,-3.03046 -3.78807,-0.50507 3.28299,-4.79823 -4.04061,0.63135 1.89404,-5.05077 -4.9245,0.25254 2.14658,-4.41942 -3.91434,-0.12626 1.6415,-3.788089 -4.29315,-0.88388 1.76776,-3.40926 -4.29314,-1.01016 0.23407,-2.62648 c 9.75747,-9.18367 14.30739,-27.08439 14.30739,-27.08439 5.36078,-24.29013 23.6665,-45.0682 49.81856,-54.0034199 34.87864,-11.91677 71.60832,1.3675399 86.82447,30.5947599 l 15.58544,30.1951 m -60.34034,62.214839 c -0.0129,0 -0.0258,0.01 -0.0388,0.013 l 0,0 m 21.69881,-56.486069 c -3.03567,14.07258 -14.13002,26.726259 -30.01263,32.152769 -11.85203,4.04941 -24.0577,3.28418 -34.06529,-1.21829 m 92.28692,-52.023469 c 5.70769,6.0394 10.17961,13.25128 12.98162,21.45234 l 0,0 c 11.60651,33.970479 -9.83435,72.049219 -47.88943,85.051319 -38.05509,13.002 -78.31375,-3.9962 -89.92023,-37.96672 -0.84091,-2.46121 -1.50834,-4.94399 -2.00855,-7.43723"
         inkscape:connector-curvature="0"
         sodipodi:nodetypes="cccccccccccccccsccccsccccsccccsccsccscccscccccccccccccccccccccccsccccccsccccssc" />
    </g>
    <g
       id="g4451"
       transform="translate(49.721552,454.28571)"
       inkscape:export-filename="/home/masato/Documents/Projects/CRマニュアル/manual/figsource/text5165.png"
       inkscape:export-xdpi="149.86"
       inkscape:export-ydpi="149.86">
      <path
         inkscape:connector-curvature="0"
         d="m 367.80523,114.99718 c -10.94928,-16.275479 -8.62941,-38.543989 2.12297,-54.296989 15.41881,-23.64735 47.48337,-36.3098 74.39176,-26.11609 4.76724,1.82451 9.26261,4.38243 13.20402,7.63182 m -84.58483,79.130059 c -6.58871,-7.86585 -14.8637,-14.73364 -18.23577,-24.772099 -2.79681,-7.48893 -3.36547,-15.37089 -2.18586,-23.03873 m 19.26426,-34.68583 c 17.93541,-16.44144 45.86056,-23.02788 68.22237,-11.99281 8.48259,3.81777 14.41805,11.03773 20.36944,17.87338 l 3.66473,4.13839 m -96.20184,66.160149 c 11.37381,17.5363 34.52305,23.95086 54.25325,19.54671 25.4639,-5.16854 48.05728,-26.39832 51.08929,-52.795409 1.84361,-14.76093 -4.02972,-30.17895 -15.65504,-39.56381 m -86.34375,53.9375 c 2.07926,10.590969 8.60141,20.315379 18.34375,25.343759 20.59494,11.13961 47.54016,3.50619 62.28125,-13.8125 11.5872,-12.895139 16.11763,-33.273669 6.84375,-48.687509 -4.20471,-7.23872 -11.06171,-12.78593 -18.84375,-15.78125 -2.05189,-0.79686 -4.14013,-1.36544 -6.25,-1.84375 m 20.79932,20.13511 c 8.51148,14.15155 4.05742,32.89027 -6.82466,44.463779 -13.51171,15.2172 -37.79074,21.6112 -55.98416,11.14479 -12.80696,-7.03861 -19.05798,-23.110459 -15.27265,-37.079729 6.17613,-26.1902 38.08189,-43.0103 62.92721,-31.94618 6.26299,2.7902 11.69494,7.47532 15.15426,13.41734 l 0,0 0,0 m -101.83057,12.02114 c 10.58042,-7.54284 19.09375,-17.1875 19.09375,-17.1875 -4.32661,3.43604 -10.42352,7.61352 -17.71875,10.78125 m 17.71875,-10.78125 c 4.45437,-3.5375 7.03125,-6.28125 7.03125,-6.28125 m -6.125,-11.84375 c 0,0 -10.74761,11.49904 -26.53125,17.8125 -15.78363,6.31345 -22.34375,0.875 -22.34375,0.875 l 0.375,1.96875 -0.78125,0.8125 2.03125,0.78125 -1.0625,1.25 2.21875,0.0937 -0.875,2.59375 2.75,0.28125 -1.3125,2.21875 2.75,-0.28125 -1.4375,1.625 1.65625,0.56255 c 0,0 0.91002,0.76048 2.90625,1.375 m 21.03125,-3.0625 c -0.57962,0.25168 -1.15538,0.51215 -1.75,0.75 -9.81054,3.92421 -16.00253,3.32182 -19.28125,2.3125 -3.54071,1.5841 -7.09724,2.62173 -10.46875,2.71875 l -0.1875,1.4375 1.75,0.625 -0.75,0.96875 2.40625,0.625 -0.75,1.5 2.375,0.0625 -0.125,2.40625 2.84375,-0.6875 -0.5,2.125 2.3125,0.375 c 6.68298,-0.18242 14.11892,-4.08516 20.75,-8.8125 m 28.56284,34.064669 c 0.7942,0.54907 1.61849,1.06198 2.46841,1.52909 2.27418,1.3083 4.63106,2.35914 7.0625,3.15625 2.43144,0.79711 4.91464,1.33893 7.4375,1.65625 2.52286,0.31732 5.07654,0.41233 7.625,0.28125 2.54846,-0.13108 5.11678,-0.48316 7.625,-1.03125 2.50822,-0.54809 4.97284,-1.3163 7.375,-2.25 2.40216,-0.9337 4.73849,-2.05584 6.96875,-3.34375 2.23026,-1.28791 4.35122,-2.73302 6.34375,-4.34375 1.99253,-1.61073 3.84229,-3.379109 5.53125,-5.281259 1.36026,-1.44669 2.63463,-3.0086 3.78125,-4.65625 1.14662,-1.64765 2.18632,-3.3848 3.09375,-5.1875 0.90743,-1.8027 1.66978,-3.65066 2.3125,-5.5625 0.64272,-1.91184 1.14754,-3.86867 1.5,-5.84375 0.35246,-1.97508 0.55708,-3.97634 0.59375,-5.96875 0.0367,-1.99241 -0.10159,-3.97367 -0.40625,-5.9375 -0.30466,-1.96383 -0.76597,-3.92316 -1.4375,-5.8125 -0.67153,-1.88934 -1.52981,-3.73106 -2.59375,-5.5 -0.44559,-0.76537 -0.9298,-1.50369 -1.44412,-2.21998 m -11.36838,-9.90502 c -26.85672,-6.08844 -57.27235,12.90485 -62.40625,40.34375 -1.03737,4.77861 -0.90214,9.68319 0.0312,14.4375"
         style="fill:none;stroke:none;display:inline"
         id="path3997-5-6" />
      <path
         inkscape:connector-curvature="0"
         id="path5084"
         d="m 421.75732,40.478411 c -19.03151,0.52674 -37.40825,11.99669 -46.18635,28.88776 -4.97148,9.67232 -6.66664,21.39725 -2.89128,31.768739 3.21414,9.64023 10.54801,17.76242 19.95673,21.65423 6.16753,2.88256 13.01484,3.98126 19.79575,3.5141 12.26685,0.0493 24.11889,-5.20635 33.44412,-12.93758 11.33517,-9.45052 18.61368,-24.120719 17.42355,-39.023469 -0.81515,-13.75869 -10.69935,-26.11979 -23.47452,-30.89154 -5.71152,-2.31274 -11.92287,-3.17739 -18.068,-2.97224 z m 2.86157,4.23159 c 13.55552,0.25351 27.11762,8.43738 32.02326,21.37777 2.8429,6.99928 2.57306,15.01017 0.83511,22.26397 -5.56564,19.651489 -25.16505,33.547589 -45.34322,33.941139 -10.10527,0.20186 -20.53915,-3.31951 -27.66555,-10.61765 -6.7091,-6.81122 -9.91667,-16.493859 -9.11505,-25.986189 1.17091,-15.15788 11.711,-28.38814 24.85922,-35.33324 7.51477,-4.08746 15.86458,-5.88828 24.40623,-5.6458 z"
         style="fill:#c8c8c8;fill-opacity:1;stroke:none;display:inline" />
      <path
         inkscape:connector-curvature="0"
         id="path5086"
         d="m 447.26841,53.670371 c -0.74109,1.25676 1.01619,2.70269 1.24848,3.98852 5.0127,12.66168 1.42632,27.73441 -7.00477,38.06223 -6.7718,8.369839 -16.23136,14.569189 -26.71557,17.112769 -9.83719,2.55089 -20.58713,1.75933 -29.76459,-2.71651 -0.72207,-0.6535 -1.90335,0.1789 -0.98332,0.88389 5.92949,6.52321 14.72496,9.95639 23.35662,10.9491 19.57929,1.58523 39.60734,-9.78052 47.72971,-27.742899 5.47642,-11.85133 4.74196,-27.12606 -4.1653,-37.10101 -1.16209,-1.02297 -2.08572,-3.23173 -3.70126,-3.43609 z"
         style="fill:#a6a6a6;fill-opacity:1;stroke:none;display:inline" />
      <path
         inkscape:connector-curvature="0"
         id="path5088"
         d="m 422.89532,31.286021 c -23.76464,0.50716 -46.38598,15.35682 -56.8558,36.55963 -6.76014,14.05546 -7.41069,31.68702 0.80691,45.284599 7.04903,12.17586 20.23321,19.7898 33.91866,21.93475 5.2461,0.91129 10.64413,0.31097 15.94305,0.23201 21.58434,-2.60199 41.69798,-16.36567 51.19895,-36.040349 7.15898,-14.22305 7.48772,-32.28164 -1.02752,-45.99509 -9.04725,-15.00215 -26.87203,-22.6548 -43.98425,-21.97555 z m -0.35355,8.94932 c 12.28781,-0.12888 25.07683,4.26642 32.90256,14.12004 5.8767,6.99523 8.7253,16.27198 8.06496,25.41146 -0.84786,17.59704 -12.91529,33.390659 -28.47162,41.034489 -7.99705,4.02647 -16.95042,6.23059 -25.95301,5.78571 -10.96868,0.0335 -21.91599,-4.63498 -29.32285,-12.7242 -9.15322,-10.30033 -11.84433,-25.856879 -6.86115,-38.736199 6.50354,-18.33984 24.12384,-31.56986 43.16338,-34.4201 2.14421,-0.30955 4.31193,-0.44972 6.47773,-0.4712 z"
         style="fill:#dfdac0;fill-opacity:1;stroke:none;display:inline" />
      <path
         inkscape:connector-curvature="0"
         id="path5090"
         d="m 370.30425,58.343901 c -5.84673,5.05341 -11.18593,10.72234 -17.57823,15.1365 -1.99008,12.25354 0.99836,25.55994 9.13715,35.123329 1.14337,1.10874 1.92075,2.80099 3.33666,3.54659 1.06198,-0.7856 -0.60627,-2.32152 -0.82864,-3.30352 -3.04698,-6.64886 -4.01903,-14.041859 -3.50939,-21.334419 0.0982,-10.34969 4.50662,-20.09542 10.06117,-28.63815 0.23438,-0.40571 -0.29009,-0.80383 -0.61872,-0.53033 z"
         style="fill:#efefef;fill-opacity:1;stroke:none;display:inline" />
      <path
         inkscape:connector-curvature="0"
         id="path5092"
         d="m 366.03952,60.708291 c -8.84341,5.08572 -18.37761,10.66384 -28.9801,10.16286 -2.72368,-0.41062 -5.50045,-0.41109 -8.01043,0.84149 -2.05385,0.9291 -4.66419,0.57544 -6.48549,1.87825 -0.28487,1.11571 1.64815,0.84981 1.43631,2.06608 0.4304,0.80596 1.78017,0.42361 1.59099,1.63518 0.43495,0.8926 2.06624,0.50773 1.78986,1.85616 0.0825,1.47259 1.85875,0.53303 2.48592,0.78444 -0.29386,1.40741 0.76167,2.69479 2.25391,2.19866 8.97368,-0.60702 16.59423,-6.05263 23.62178,-11.19217 3.70994,-3.07247 7.55285,-6.15811 10.81653,-9.65643 0.0603,-0.23435 -0.0553,-0.74145 -0.51928,-0.57452 z"
         style="fill:#dfd9c4;fill-opacity:1;stroke:none;display:inline" />
      <path
         inkscape:connector-curvature="0"
         id="path3122"
         d="m 411.77207,21.640971 c -15.49708,1.09836 -30.2895,8.01141 -41.54194,18.63349 -10.65507,9.33933 -23.38989,17.89565 -37.94244,18.75713 -2.76727,0.35211 -5.42038,-1.23354 -8.03125,-1.1875 -1.03954,0.94679 0.0515,2.47065 0.89063,2.95313 -0.38121,1.40312 2.2072,0.73239 0.89062,2.54687 -0.30654,1.64171 3.11033,0.82603 1.60938,2.45313 -0.45663,1.77239 2.86403,0.35689 1.26562,1.98437 0.34446,1.89119 3.27229,1.56408 4.60938,2.51563 11.94322,2.18667 23.3047,-4.157 33.03125,-10.29688 10.49475,-7.41899 19.05035,-17.79364 31.15625,-22.76562 16.89709,-8.08619 37.9579,-8.31583 54.40625,1.14062 0.72328,0.71415 3.18096,1.23739 2.20312,-0.42187 -8.80644,-10.0566 -21.8729,-16.04705 -35.24953,-16.17797 -2.43084,-0.0936 -4.86431,-0.19435 -7.29734,-0.13453 z"
         style="fill:#efefef;fill-opacity:1;stroke:none;display:inline" />
      <path
         id="path4794"
         style="fill:none;stroke:#000000;stroke-width:1;stroke-linejoin:round;stroke-miterlimit:4;stroke-opacity:1;display:inline"
         d="m 367.80523,114.99718 c -10.94928,-16.275479 -8.62941,-38.543989 2.12297,-54.296989 15.41881,-23.64735 47.48337,-36.3098 74.39176,-26.11609 4.76724,1.82451 9.26261,4.38243 13.20402,7.63182 m -84.58483,79.130059 c -6.58871,-7.86585 -14.8637,-14.73364 -18.23577,-24.772099 -2.79681,-7.48893 -3.36547,-15.37089 -2.18586,-23.03873 m 19.26426,-34.68583 c 17.93541,-16.44144 45.86056,-23.02788 68.22237,-11.99281 8.48259,3.81777 14.41805,11.03773 20.36944,17.87338 l 3.66473,4.13839 m -96.20184,66.160149 c 11.37381,17.5363 34.52305,23.95086 54.25325,19.54671 25.4639,-5.16854 48.05728,-26.39832 51.08929,-52.795409 1.84361,-14.76093 -4.02972,-30.17895 -15.65504,-39.56381 m -86.34375,53.9375 c 2.07926,10.590969 8.60141,20.315379 18.34375,25.343759 20.59494,11.13961 47.54016,3.50619 62.28125,-13.8125 11.5872,-12.895139 16.11763,-33.273669 6.84375,-48.687509 -4.20471,-7.23872 -11.06171,-12.78593 -18.84375,-15.78125 -2.05189,-0.79686 -4.14013,-1.36544 -6.25,-1.84375 m 20.79932,20.13511 c 8.51148,14.15155 4.05742,32.89027 -6.82466,44.463779 -13.51171,15.2172 -37.79074,21.6112 -55.98416,11.14479 -12.80696,-7.03861 -19.05798,-23.110459 -15.27265,-37.079729 6.17613,-26.1902 38.08189,-43.0103 62.92721,-31.94618 6.26299,2.7902 11.69494,7.47532 15.15426,13.41734 l 0,0 0,0 m -101.83057,12.02114 c 10.58042,-7.54284 19.09375,-17.1875 19.09375,-17.1875 -4.32661,3.43604 -10.42352,7.61352 -17.71875,10.78125 m 17.71875,-10.78125 c 4.45437,-3.5375 7.03125,-6.28125 7.03125,-6.28125 m -6.125,-11.84375 c 0,0 -10.74761,11.49904 -26.53125,17.8125 -15.78363,6.31345 -22.34375,0.875 -22.34375,0.875 l 0.375,1.96875 -0.78125,0.8125 2.03125,0.78125 -1.0625,1.25 2.21875,0.0937 -0.875,2.59375 2.75,0.28125 -1.3125,2.21875 2.75,-0.28125 -1.4375,1.625 1.65625,0.56255 c 0,0 0.91002,0.76048 2.90625,1.375 m 21.03125,-3.0625 c -0.57962,0.25168 -1.15538,0.51215 -1.75,0.75 -9.81054,3.92421 -16.00253,3.32182 -19.28125,2.3125 -3.54071,1.5841 -7.09724,2.62173 -10.46875,2.71875 l -0.1875,1.4375 1.75,0.625 -0.75,0.96875 2.40625,0.625 -0.75,1.5 2.375,0.0625 -0.125,2.40625 2.84375,-0.6875 -0.5,2.125 2.3125,0.375 c 6.68298,-0.18242 14.11892,-4.08516 20.75,-8.8125 m 28.56284,34.064669 c 0.7942,0.54907 1.61849,1.06198 2.46841,1.52909 2.27418,1.3083 4.63106,2.35914 7.0625,3.15625 2.43144,0.79711 4.91464,1.33893 7.4375,1.65625 2.52286,0.31732 5.07654,0.41233 7.625,0.28125 2.54846,-0.13108 5.11678,-0.48316 7.625,-1.03125 2.50822,-0.54809 4.97284,-1.3163 7.375,-2.25 2.40216,-0.9337 4.73849,-2.05584 6.96875,-3.34375 2.23026,-1.28791 4.35122,-2.73302 6.34375,-4.34375 1.99253,-1.61073 3.84229,-3.379109 5.53125,-5.281259 1.36026,-1.44669 2.63463,-3.0086 3.78125,-4.65625 1.14662,-1.64765 2.18632,-3.3848 3.09375,-5.1875 0.90743,-1.8027 1.66978,-3.65066 2.3125,-5.5625 0.64272,-1.91184 1.14754,-3.86867 1.5,-5.84375 0.35246,-1.97508 0.55708,-3.97634 0.59375,-5.96875 0.0367,-1.99241 -0.10159,-3.97367 -0.40625,-5.9375 -0.30466,-1.96383 -0.76597,-3.92316 -1.4375,-5.8125 -0.67153,-1.88934 -1.52981,-3.73106 -2.59375,-5.5 -0.44559,-0.76537 -0.9298,-1.50369 -1.44412,-2.21998 m -11.36838,-9.90502 c -26.85672,-6.08844 -57.27235,12.90485 -62.40625,40.34375 -1.03737,4.77861 -0.90214,9.68319 0.0312,14.4375"
         inkscape:connector-curvature="0" />
    </g>
    <g
       id="g4420"
       transform="translate(51.137808,449.45903)"
       inkscape:export-filename="/home/masato/Documents/Projects/CRマニュアル/manual/figsource/text5165.png"
       inkscape:export-xdpi="149.86"
       inkscape:export-ydpi="149.86">
      <path
         inkscape:connector-curvature="0"
         id="path5054"
         d="M 170.62805,126.98185 159.53898,105.42359"
         style="fill:none;stroke:none;display:inline" />
      <path
         inkscape:connector-curvature="0"
         id="path5052"
         d="m 165.59187,90.102321 c 0,0 -1.82235,7.07776 -5.77638,14.554629"
         style="fill:none;stroke:none;display:inline" />
      <path
         inkscape:connector-curvature="0"
         id="path5050"
         d="m 159.81549,104.65695 c -2.13045,4.02857 -4.87975,8.17301 -8.29628,11.38863"
         style="fill:none;stroke:none;display:inline" />
      <path
         inkscape:connector-curvature="0"
         id="path5048"
         d="m 165.74717,112.5718 c -3.71066,-18.495349 1.78087,-37.566619 13.92334,-52.682809"
         style="fill:none;stroke:none;display:inline" />
      <path
         inkscape:connector-curvature="0"
         id="path5046"
         d="m 179.67051,59.888991 c 4.87312,-6.06656 10.81748,-11.49609 17.66815,-15.99572 5.53878,-3.63796 11.67,-6.66806 18.3065,-8.93551"
         style="fill:none;stroke:none;display:inline" />
      <path
         inkscape:connector-curvature="0"
         id="path5044"
         d="m 215.64516,34.957761 0,0"
         style="fill:none;stroke:none;display:inline" />
      <path
         inkscape:connector-curvature="0"
         id="path5042"
         d="m 215.95742,34.851761 c 8.18596,-2.76071 16.46992,-4.13578 24.54504,-4.25474"
         style="fill:none;stroke:none;display:inline" />
      <path
         inkscape:connector-curvature="0"
         id="path5040"
         d="m 240.50246,30.597021 c 20.30808,-0.29919 39.29534,7.34606 52.0813,20.87507"
         style="fill:none;stroke:none;display:inline" />
      <path
         inkscape:connector-curvature="0"
         id="path5038"
         d="m 261.03168,120.09091 c -3.82812,3.32983 -8.42602,6.02731 -13.63253,7.80618 -1.55687,0.53193 -3.12095,0.96559 -4.68416,1.3044"
         style="fill:none;stroke:none;display:inline" />
      <path
         inkscape:connector-curvature="0"
         id="path5036"
         d="m 242.71499,129.20149 c -0.0122,0.003 -0.0245,0.005 -0.0367,0.008"
         style="fill:none;stroke:none;display:inline" />
      <path
         inkscape:connector-curvature="0"
         id="path5034"
         d="m 242.67829,129.20949 c -17.94935,3.87338 -35.77512,-4.75501 -41.22736,-20.7129 -0.57247,-1.67554 -0.9876,-3.37063 -1.25295,-5.07188"
         style="fill:none;stroke:none;display:inline" />
      <path
         inkscape:connector-curvature="0"
         id="path5032"
         d="m 200.19798,103.42471 c -0.38934,-2.49615 -0.45621,-5.005539 -0.22448,-7.485789"
         style="fill:none;stroke:none;display:inline" />
      <path
         inkscape:connector-curvature="0"
         id="path5030"
         d="m 199.9735,95.938921 c 1.24655,-13.34195 11.13372,-25.84095 25.94841,-30.90259 11.49903,-3.92881 23.3918,-2.49704 32.41801,2.91872"
         style="fill:none;stroke:none;display:inline" />
      <path
         inkscape:connector-curvature="0"
         id="path5028"
         d="m 258.33992,67.955051 c 2.13999,1.28399 4.11884,2.79193 5.89312,4.50546"
         style="fill:none;stroke:none;display:inline" />
      <path
         inkscape:connector-curvature="0"
         id="path5026"
         d="m 264.23304,72.460511 c 3.39753,3.2812 6.04492,7.31626 7.63711,11.97637 4.34285,12.71086 -0.36896,26.547359 -10.83844,35.654079"
         style="fill:none;stroke:none;display:inline" />
      <path
         inkscape:connector-curvature="0"
         id="path5024"
         d="m 278.72381,104.06941 c -3.76782,13.02239 -14.45611,24.48038 -29.36165,29.57306 -10.8963,3.72288 -22.09151,3.37629 -31.60276,-0.20255"
         style="fill:none;stroke:none;display:inline" />
      <path
         inkscape:connector-curvature="0"
         id="path5022"
         d="m 217.7594,133.43992 c -10.56547,-3.9755 -19.053,-11.93948 -22.74462,-22.74433 -1.27831,-3.74143 -1.89336,-7.56532 -1.90524,-11.364929"
         style="fill:none;stroke:none;display:inline" />
      <path
         inkscape:connector-curvature="0"
         id="path5020"
         d="m 193.10954,99.330661 c -0.008,-2.6481 0.27641,-5.28439 0.83372,-7.87276 3.03128,-14.07826 14.12774,-26.7386 30.01568,-32.16693 11.8508,-4.04899 24.05516,-3.28433 34.06217,1.2169"
         style="fill:none;stroke:none;display:inline" />
      <path
         inkscape:connector-curvature="0"
         id="path5018"
         d="m 258.02111,60.507871 c 2.51099,1.12946 4.88362,2.49418 7.07761,4.07716"
         style="fill:none;stroke:none;display:inline" />
      <path
         inkscape:connector-curvature="0"
         id="path5016"
         d="m 265.09872,64.585031 c 6.03228,4.35232 10.71403,10.35449 13.20761,17.65283 l 0,0 0,0 c 2.46884,7.22594 2.46368,14.75943 0.41748,21.831549"
         style="fill:none;stroke:none;display:inline" />
      <path
         inkscape:connector-curvature="0"
         id="path5014"
         d="m 151.56372,115.88124 -0.75761,-3.03046 -3.78807,-0.50507 3.28299,-4.79823 -4.04061,0.63135 1.89404,-5.05077 -4.9245,0.25254 2.14658,-4.419429 -3.91434,-0.12626 1.6415,-3.78808 -4.29315,-0.88388 1.76776,-3.40926 -4.29314,-1.01016 0.23407,-2.62648 c 9.75747,-9.18367 14.30739,-27.08439 14.30739,-27.08439 5.36078,-24.29013 23.6665,-45.0682 49.81856,-54.0034199 34.87864,-11.91677 71.60832,1.36754 86.82447,30.5947599 l 15.58544,30.1951"
         style="fill:none;stroke:none;display:inline" />
      <path
         inkscape:connector-curvature="0"
         id="path5012"
         d="m 242.71476,129.03392 c -0.0129,0.004 -0.0258,0.009 -0.0388,0.0133 l 0,0"
         style="fill:none;stroke:none;display:inline" />
      <path
         inkscape:connector-curvature="0"
         id="path5010"
         d="m 264.37477,72.561171 c -3.03567,14.07258 -14.13002,26.72625 -30.01263,32.152769 -11.85203,4.04941 -24.0577,3.28418 -34.06529,-1.21829"
         style="fill:none;stroke:none;display:inline" />
      <path
         inkscape:connector-curvature="0"
         id="path4723"
         d="m 292.58377,51.472181 c 5.70769,6.0394 10.17961,13.25128 12.98162,21.45234 l 0,0 c 11.60648,33.970479 -9.83435,72.049219 -47.88943,85.051269 -38.05509,13.00205 -78.31375,-3.9962 -89.92023,-37.96667 -0.84091,-2.46121 -1.50834,-4.94399 -2.00855,-7.43723"
         style="fill:none;stroke:none;display:inline" />
      <path
         inkscape:connector-curvature="0"
         id="path5074"
         d="m 224.80918,1.8767111 c -9.90133,0.0677 -19.71794,2.40298 -28.87907,6.06524 -12.76273,5.1790699 -23.96846,13.9714399 -32.37188,24.8519999 -5.25071,6.95827 -9.14322,14.90128 -11.53107,23.28338 -2.1388,8.13482 -4.9235,16.10108 -9.37297,23.27541 -1.62427,2.94105 -3.94015,5.35467 -5.87626,8.05522 -0.40705,1.02201 -0.36377,2.79914 1.16853,2.63614 0.7863,0.29926 2.16994,0.31395 2.65179,0.77011 -0.33749,1.04687 -1.22687,1.97002 -1.25782,3.07031 1.05742,0.81094 2.74961,0.54808 3.8125,1.20313 -0.27053,1.19619 -1.18627,2.22135 -1.3125,3.4375 0.97431,0.58927 2.61639,-0.0905 3.52344,0.40625 -0.38646,1.334349 -1.17456,2.520469 -1.57031,3.843759 0.59633,0.95286 2.10463,0.13048 3.03842,0.31015 2.31096,-0.76175 0.8702,1.25704 0.50845,2.50235 -0.20163,0.63274 -1.13025,2.25251 0.20313,2.1875 0.91077,0.0584 2.25588,-0.40229 2.85156,-0.24219 -0.83345,1.53586 -2.23155,2.85272 -2.8125,4.46875 0.69234,1.03155 2.62446,0.10392 3.38281,1.09375 0.33654,0.65754 0.1154,2.45523 1.26563,2.02344 6.78123,-7.03021 10.6962,-16.297899 13.33844,-25.561599 2.53077,-12.26509 8.4346,-23.84259 16.91156,-32.98529 7.81002,-8.72067 17.80767,-15.52282 28.66406,-19.98437 1.27225,-0.53613 2.64807,-1.14345 3.9375,-1.44531 -7.07464,2.93565 -14.16439,6.11618 -20.31143,10.74609 -15.52866,10.91881 -26.90743,28.09315 -29.47099,47.04565 -0.73884,5.75162 -0.59115,11.627729 0.14697,17.368379 2.71863,16.38847 12.52126,31.45245 26.53776,40.37216 10.82745,6.95696 23.55059,11.04645 36.44916,11.4402 7.44023,0.15065 14.91686,-0.31115 22.1329,-2.20685 22.35952,-5.32136 42.5419,-20.69372 52.16266,-41.76648 7.4454,-15.93546 7.93938,-35.234619 0.25141,-51.186649 -4.47571,-9.54102 -11.59601,-17.76031 -20.22989,-23.78162 -15.60868,-10.78087 -35.55104,-14.54158 -54.14511,-11.31213 -4.13215,0.57632 -8.26445,1.84674 -12.21094,2.82031 5.81257,-2.04163 11.96052,-3.18118 18.08455,-3.82627 8.49917,-0.51954 17.12748,-0.32177 25.39236,1.86347 12.56365,3.13681 24.36524,9.669 33.14028,19.18936 1.01677,0.84427 1.80272,2.16665 2.96093,2.71875 0.92713,-0.64671 -0.51875,-1.81401 -0.64062,-2.60937 -3.66456,-6.95124 -7.15288,-14.02832 -11.17188,-20.77344 -9.45028,-14.43702 -25.04531,-24.2876299 -41.84785,-27.7629799 -5.74308,-1.32846 -11.62229,-1.662 -17.50371,-1.60421 z m 14.69531,54.6953099 c 8.21747,0.027 16.50527,2.16334 23.44061,6.52761 9.58435,5.77443 16.31475,16.26649 17.15089,27.45641 0.47246,6.36902 -0.48103,12.815479 -3.21606,18.596189 -5.28699,12.02715 -16.15606,21.06308 -28.62544,24.87293 -8.25825,2.59093 -17.27729,3.17324 -25.70381,0.94076 -11.59745,-2.76099 -21.91687,-10.75395 -26.66223,-21.81033 -2.58021,-5.79338 -3.13918,-12.35041 -2.53239,-18.646069 1.80191,-13.65576 11.0872,-25.66946 23.13572,-32.03359 7.04038,-3.79179 15.01256,-5.76788 23.01271,-5.90391 z"
         style="fill:#cea870;fill-opacity:1;stroke:none;display:inline" />
      <path
         inkscape:connector-curvature="0"
         id="path5076"
         d="m 238.64359,56.933411 c -8.63805,-0.0436 -17.19541,2.68593 -24.53125,7.14844 -10.70685,6.66094 -19.05106,17.89456 -20.52344,30.61719 -0.53807,5.741649 -0.26703,11.666789 1.96875,17.046879 4.82121,12.86305 17.37871,21.82094 30.78575,23.82966 9.63697,1.41588 19.68475,-0.0407 28.44046,-4.31111 12.77845,-6.03603 22.89088,-18.26576 24.91129,-32.431029 0.6081,-5.84448 0.39561,-11.89827 -1.84844,-17.40003 -3.3874,-9.47193 -11.12455,-16.98986 -20.29961,-20.92414 -5.79378,-2.63574 -12.1826,-3.83315 -18.54412,-3.57839 l -0.24999,0.002 -0.1094,7.7e-4 z m -0.46094,5.89844 c 11.68836,-0.45782 23.77564,4.76795 30.28043,14.67958 3.29561,4.95103 5.22147,10.82511 4.95395,16.81261 0.24739,10.267509 -5.35659,19.954739 -13.08594,26.429689 -11.39483,9.47218 -28.29044,12.36872 -41.85156,6.10938 -9.61103,-4.2116 -17.24129,-13.54564 -18.40316,-24.11636 -0.39378,-5.201429 -0.22468,-10.555759 1.90622,-15.398519 4.31543,-11.43948 14.71874,-20.01037 26.45787,-23.11013 3.16323,-0.90625 6.43174,-1.40267 9.74219,-1.40625 z"
         style="fill:#ad9475;fill-opacity:1;stroke:none;display:inline" />
      <path
         inkscape:connector-curvature="0"
         id="path5078"
         d="m 264.60453,73.589661 c -1.18313,1.79281 -1.47314,4.11573 -2.46094,6.03906 -5.69571,13.67883 -18.75143,23.430749 -32.99322,26.627749 -5.29672,1.34342 -10.84532,0.91497 -16.26388,0.79095 -4.19452,-0.39518 -8.21701,-1.8124 -12.11732,-3.17512 -0.63487,0.78857 0.19145,2.1513 0.32958,3.12855 1.69518,5.3995 4.64586,10.46185 9.0076,14.14496 6.69447,6.07931 15.95798,9.09867 24.95893,8.825 14.5659,-0.35015 28.98155,-8.86929 35.19458,-22.23139 5.01681,-10.184169 3.75774,-23.185099 -3.32721,-32.071629 -0.68328,-0.64219 -1.24903,-2.13025 -2.32812,-2.07813 z"
         style="fill:#d4bd9e;fill-opacity:1;stroke:none;display:inline" />
      <path
         inkscape:connector-curvature="0"
         id="path5080"
         d="m 164.22567,93.696101 c -2.01953,3.49461 -3.46163,7.524509 -5.52611,11.105539 2.31594,5.02547 5.13927,10.0839 8.18966,14.80738 2.04147,0.28706 0.37969,-2.67891 0.47455,-3.73065 -1.92794,-7.12833 -1.37182,-14.70275 -2.3421,-21.951809 -0.15561,-0.24503 -0.5191,-0.36925 -0.796,-0.23046 z"
         style="fill:#cea870;fill-opacity:1;stroke:none;display:inline" />
      <path
         id="path4796"
         style="fill:none;stroke:#000000;stroke-width:1px;stroke-linecap:butt;stroke-linejoin:miter;stroke-opacity:1;display:inline"
         d="m 170.62805,126.98185 -11.08907,-21.55826 m 6.05289,-15.321269 c 0,0 -1.82235,7.07776 -5.77638,14.554629 m 0,0 c -2.13045,4.02857 -4.87975,8.17301 -8.29628,11.38863 m 14.22796,-3.47378 c -3.71066,-18.495349 1.78087,-37.566619 13.92334,-52.682809 m 0,0 c 4.87312,-6.06656 10.81748,-11.49609 17.66815,-15.99572 5.53878,-3.63796 11.67,-6.66806 18.38456,-8.96201 8.42016,-2.84021 16.70412,-4.21528 24.77924,-4.33424 m 0,0 c 20.30808,-0.29919 39.29534,7.34606 52.0813,20.87507 m -31.55208,68.618819 c -3.82812,3.32983 -8.42602,6.02731 -13.63253,7.80618 -1.55687,0.53193 -3.12095,0.96559 -4.68416,1.3044 m 0,0 c -0.0122,0.003 -0.0245,0.005 -0.0367,0.008 m 0,0 c -17.94935,3.87338 -35.77512,-4.75501 -41.22736,-20.7129 -0.57247,-1.67554 -0.9876,-3.37063 -1.25295,-5.07188 m 0,0 c -0.38934,-2.49615 -0.45621,-5.005539 -0.22448,-7.485789 m 0,0 c 1.24655,-13.34195 11.13372,-25.84095 25.94841,-30.90259 11.49903,-3.92881 23.3918,-2.49704 32.41801,2.91872 m 0,0 c 2.13999,1.28399 4.11884,2.79193 5.89312,4.50546 m 0,0 c 3.39753,3.2812 6.04492,7.31626 7.63711,11.97637 4.34285,12.71086 -0.36896,26.547359 -10.83844,35.654079 m 17.6921,-16.02155 c -3.76782,13.02239 -14.45611,24.48038 -29.36165,29.57306 -10.8963,3.72288 -22.09151,3.37629 -31.60276,-0.20255 m 0,0 c -10.56547,-3.9755 -19.053,-11.93948 -22.74462,-22.74433 -1.27831,-3.74143 -1.89336,-7.56532 -1.90524,-11.364929 m 0,0 c -0.008,-2.6481 0.27641,-5.28439 0.83372,-7.87276 3.03128,-14.07826 14.12774,-26.7386 30.01568,-32.16693 11.8508,-4.04899 24.05516,-3.28433 34.06217,1.2169 m 0,0 c 2.51099,1.12946 4.88362,2.49418 7.07761,4.07716 m 0,0 c 6.03228,4.35232 10.71403,10.35449 13.20761,17.65283 l 0,0 0,0 c 2.46884,7.22594 2.46368,14.75943 0.41748,21.831549 m -127.16009,11.81183 -0.75761,-3.03046 -3.78807,-0.50507 3.28299,-4.79823 -4.04061,0.63135 1.89404,-5.05077 -4.9245,0.25254 2.14658,-4.419429 -3.91434,-0.12626 1.6415,-3.78808 -4.29315,-0.88388 1.76776,-3.40926 -4.29314,-1.01016 0.23407,-2.62648 c 9.75747,-9.18367 14.30739,-27.08439 14.30739,-27.08439 5.36078,-24.29013 23.6665,-45.0682 49.81856,-54.0034199 34.87864,-11.91677 71.60832,1.36754 86.82447,30.5947599 l 15.58544,30.1951 m -60.34034,62.214819 c -0.0129,0.004 -0.0258,0.009 -0.0388,0.0133 l 0,0 m 21.69881,-56.486049 c -3.03567,14.07258 -14.13002,26.72625 -30.01263,32.152769 -11.85203,4.04941 -24.0577,3.28418 -34.06529,-1.21829 m 92.28692,-52.023469 c 5.70769,6.0394 10.17961,13.25128 12.98162,21.45234 l 0,0 c 11.60648,33.970479 -9.83435,72.049219 -47.88943,85.051269 -38.05509,13.00205 -78.31375,-3.9962 -89.92023,-37.96667 -0.84091,-2.46121 -1.50834,-4.94399 -2.00855,-7.43723"
         inkscape:connector-curvature="0"
         sodipodi:nodetypes="cccccccccccccccsccccsccccsccccsccsccscccscccccccccccccccccccccccsccccccsccccssc" />
    </g>
    <text
       xml:space="preserve"
       style="font-size:28px;font-style:normal;font-variant:normal;font-weight:normal;font-stretch:normal;line-height:125%;letter-spacing:0px;word-spacing:0px;fill:#0052ff;fill-opacity:1;stroke:none;font-family:'Takao Pゴシック';-inkscape-font-specification:Sans"
       x="205.29224"
       y="648.56055"
       id="text4649"
       sodipodi:linespacing="125%"
       inkscape:export-filename="/home/masato/Documents/Projects/CRマニュアル/manual/figsource/text5165.png"
       inkscape:export-xdpi="149.86"
       inkscape:export-ydpi="149.86"><tspan
         sodipodi:role="line"
         id="tspan4651"
         x="205.29224"
         y="648.56055"
         style="font-size:28px">ガムテープ</tspan></text>
    <text
       sodipodi:linespacing="125%"
       id="text5161"
       y="648.2627"
       x="388.87604"
       style="font-size:28px;font-style:normal;font-variant:normal;font-weight:normal;font-stretch:normal;line-height:125%;letter-spacing:0px;word-spacing:0px;fill:#0052ff;fill-opacity:1;stroke:none;font-family:'Takao Pゴシック';-inkscape-font-specification:Sans"
       xml:space="preserve"
       inkscape:export-filename="/home/masato/Documents/Projects/CRマニュアル/manual/figsource/text5165.png"
       inkscape:export-xdpi="149.86"
       inkscape:export-ydpi="149.86"><tspan
         style="font-size:28px"
         y="648.2627"
         x="388.87604"
         id="tspan5163"
         sodipodi:role="line">両面テープ</tspan></text>
    <text
       xml:space="preserve"
       style="font-size:28px;font-style:normal;font-variant:normal;font-weight:normal;font-stretch:normal;line-height:125%;letter-spacing:0px;word-spacing:0px;fill:#0052ff;fill-opacity:1;stroke:none;font-family:'Takao Pゴシック';-inkscape-font-specification:Sans"
       x="570.5918"
       y="648.18945"
       id="text5165"
       sodipodi:linespacing="125%"
       inkscape:export-xdpi="149.86"
       inkscape:export-ydpi="149.86"><tspan
         sodipodi:role="line"
         id="tspan5167"
         x="570.5918"
         y="648.18945"
         style="font-size:28px">養生テープ</tspan></text>
    <flowRoot
       xml:space="preserve"
       id="flowRoot6599"
       style="fill:black;stroke:none;stroke-opacity:1;stroke-width:1px;stroke-linejoin:miter;stroke-linecap:butt;fill-opacity:1;font-family:'Takao Pゴシック';font-style:normal;font-weight:normal;font-size:16px;line-height:125%;letter-spacing:0px;word-spacing:0px;-inkscape-font-specification:Sans;font-stretch:normal;font-variant:normal"><flowRegion
         id="flowRegion6601"><rect
           id="rect6603"
           width="854.58905"
           height="353.55341"
           x="-58.588848"
           y="615.97626" /></flowRegion><flowPara
         id="flowPara6605" /></flowRoot>  </g>
</svg>
