<?xml version="1.0" encoding="UTF-8" standalone="no"?>
<!-- Created with Inkscape (http://www.inkscape.org/) -->

<svg
   xmlns:dc="http://purl.org/dc/elements/1.1/"
   xmlns:cc="http://creativecommons.org/ns#"
   xmlns:rdf="http://www.w3.org/1999/02/22-rdf-syntax-ns#"
   xmlns:svg="http://www.w3.org/2000/svg"
   xmlns="http://www.w3.org/2000/svg"
   xmlns:xlink="http://www.w3.org/1999/xlink"
   xmlns:sodipodi="http://sodipodi.sourceforge.net/DTD/sodipodi-0.dtd"
   xmlns:inkscape="http://www.inkscape.org/namespaces/inkscape"
   width="210mm"
   height="297mm"
   id="svg10906"
   version="1.1"
   inkscape:version="0.48.4 r9939"
   sodipodi:docname="新規ドキュメント 53">
  <defs
     id="defs10908">
    <radialGradient
       inkscape:collect="always"
       xlink:href="#linearGradient4079"
       id="radialGradient3384"
       gradientUnits="userSpaceOnUse"
       gradientTransform="matrix(2.3154159,-0.6660105,0.28102647,0.97700121,-2408.4681,433.39141)"
       cx="1088.6093"
       cy="985.96783"
       fx="1088.6093"
       fy="985.96783"
       r="136.48488" />
    <linearGradient
       id="linearGradient4079">
      <stop
         style="stop-color:#858585;stop-opacity:1;"
         offset="0"
         id="stop4081" />
      <stop
         style="stop-color:#e4e4e4;stop-opacity:1;"
         offset="1"
         id="stop4083" />
    </linearGradient>
    <radialGradient
       inkscape:collect="always"
       xlink:href="#linearGradient4079"
       id="radialGradient10965"
       gradientUnits="userSpaceOnUse"
       gradientTransform="matrix(2.3154159,-0.6660105,0.28102647,0.97700121,-2408.4681,433.39141)"
       cx="1088.6093"
       cy="985.96783"
       fx="1088.6093"
       fy="985.96783"
       r="136.48488" />
    <radialGradient
       inkscape:collect="always"
       xlink:href="#linearGradient4079"
       id="radialGradient10993"
       gradientUnits="userSpaceOnUse"
       gradientTransform="matrix(2.3154159,-0.6660105,0.28102647,0.97700121,-2408.4681,433.39141)"
       cx="1088.6093"
       cy="985.96783"
       fx="1088.6093"
       fy="985.96783"
       r="136.48488" />
    <radialGradient
       inkscape:collect="always"
       xlink:href="#linearGradient4079"
       id="radialGradient11021"
       gradientUnits="userSpaceOnUse"
       gradientTransform="matrix(2.3154159,-0.6660105,0.28102647,0.97700121,-2408.4681,433.39141)"
       cx="1088.6093"
       cy="985.96783"
       fx="1088.6093"
       fy="985.96783"
       r="136.48488" />
  </defs>
  <sodipodi:namedview
     id="base"
     pagecolor="#ffffff"
     bordercolor="#666666"
     borderopacity="1.0"
     inkscape:pageopacity="0.0"
     inkscape:pageshadow="2"
     inkscape:zoom="0.49497475"
     inkscape:cx="142.78573"
     inkscape:cy="620.5636"
     inkscape:document-units="px"
     inkscape:current-layer="layer1"
     showgrid="false"
     inkscape:window-width="796"
     inkscape:window-height="585"
     inkscape:window-x="306"
     inkscape:window-y="271"
     inkscape:window-maximized="0" />
  <metadata
     id="metadata10911">
    <rdf:RDF>
      <cc:Work
         rdf:about="">
        <dc:format>image/svg+xml</dc:format>
        <dc:type
           rdf:resource="http://purl.org/dc/dcmitype/StillImage" />
        <dc:title></dc:title>
      </cc:Work>
    </rdf:RDF>
  </metadata>
  <g
     inkscape:label="レイヤー 1"
     inkscape:groupmode="layer"
     id="layer1">
    <g
       id="g10951"
       transform="matrix(0.55725948,0,0,0.55725948,-42.871352,128.69734)">
      <path
         style="color:#000000;fill:#976629;fill-opacity:1;stroke:none;stroke-width:1px;marker:none;visibility:visible;display:inline;overflow:visible;enable-background:accumulate"
         d="m 236.78052,518.96161 4.461,-4.1823 304.8351,0 0,304.83525 -4.1765,4.4836 -300.6586,-4.4836"
         id="path3358"
         inkscape:connector-curvature="0"
         sodipodi:nodetypes="cccccc" />
      <path
         style="color:#000000;fill:#976629;fill-opacity:1;stroke:none;stroke-width:1px;marker:none;visibility:visible;display:inline;overflow:visible;enable-background:accumulate"
         d="m 236.78042,519.24031 304.8352,0 0,304.83525 -304.8352,0 z"
         id="path3360"
         inkscape:connector-curvature="0" />
      <path
         style="color:#000000;fill:url(#radialGradient10965);fill-opacity:1;stroke:none;stroke-width:1px;marker:none;visibility:visible;display:inline;overflow:visible;enable-background:accumulate"
         d="m 527.95062,532.90521 0,277.50525 -0.2978,0 -277.2074,0 0,-0.702 0,-276.80325 0.4035,0 276.4524,0 z"
         id="path3362"
         inkscape:connector-curvature="0"
         sodipodi:nodetypes="ccccccccc" />
      <path
         style="color:#000000;fill:none;stroke:#000000;stroke-width:1.79449618px;stroke-opacity:1;marker:none;visibility:visible;display:inline;overflow:visible;enable-background:accumulate"
         d="m 236.78062,518.96151 4.4609,-4.1822 304.8352,0 0,304.83525 -4.3312,4.6162"
         id="path3364"
         inkscape:connector-curvature="0"
         sodipodi:nodetypes="ccccc" />
      <path
         style="color:#000000;fill:none;stroke:#000000;stroke-width:1.79449618px;stroke-opacity:1;marker:none;visibility:visible;display:inline;overflow:visible;enable-background:accumulate"
         d="m 541.61572,824.07556 -304.8353,0 0,-304.83525 304.8353,0 0,304.83525"
         id="path3366"
         inkscape:connector-curvature="0" />
      <path
         inkscape:connector-curvature="0"
         id="path3368"
         d="m 541.60942,519.46631 4.371,-4.4727"
         style="fill:none;stroke:#000000;stroke-width:1.79449618px;stroke-linecap:butt;stroke-linejoin:miter;stroke-opacity:1;display:inline" />
      <path
         style="color:#000000;fill:none;stroke:#000000;stroke-width:1.79449618px;stroke-opacity:1;marker:none;visibility:visible;display:inline;overflow:visible;enable-background:accumulate"
         d="m 527.87452,810.63506 -277.6511,0 m 0,-291.13085 0,13.18 0,277.95085 0,13.2039 m 0,-291.15475 277.9494,0 m 0,291.22815 0,-13.2773 0,-277.95085 0,-13.183"
         id="path3370"
         inkscape:connector-curvature="0"
         sodipodi:nodetypes="cccccccccccc" />
      <path
         sodipodi:nodetypes="cccccc"
         style="fill:none;stroke:#000000;stroke-width:1.79449618px;stroke-linecap:butt;stroke-linejoin:miter;stroke-opacity:1;display:inline"
         d="m 385.45022,810.59606 4.889,3.0497 -5.1001,3.2778 5.0657,2.5337 -5.198,2.8713 3.8474,1.7511"
         id="path3372"
         inkscape:connector-curvature="0" />
      <path
         sodipodi:nodetypes="ccccc"
         inkscape:connector-curvature="0"
         id="path4334"
         d="m 236.87732,678.21846 3.125,3.7109 3.7109,-5.0781 3.2715,5.0293 3.2226,-4.9316"
         style="fill:none;stroke:#000000;stroke-width:1.79449618px;stroke-linecap:butt;stroke-linejoin:miter;stroke-opacity:1;display:inline" />
      <path
         style="fill:none;stroke:#000000;stroke-width:1.79449618px;stroke-linecap:butt;stroke-linejoin:miter;stroke-opacity:1;display:inline"
         d="m 528.21362,678.21846 3.125,3.7109 3.7109,-5.0781 3.2715,5.0293 3.2226,-4.9316"
         id="path4336"
         inkscape:connector-curvature="0"
         sodipodi:nodetypes="ccccc" />
      <path
         sodipodi:nodetypes="ccc"
         inkscape:connector-curvature="0"
         id="path4338"
         d="m 541.69142,676.96336 2.3824,1.5537 2.0025,-5.5933"
         style="fill:none;stroke:#000000;stroke-width:1.79449618px;stroke-linecap:butt;stroke-linejoin:miter;stroke-opacity:1;display:inline" />
      <path
         inkscape:connector-curvature="0"
         id="path4340"
         d="m 387.49522,532.64181 2.3133,-1.1393 -4.1777,-2.5205 4.4539,-3.1764 -4.5921,-3.0384 c 0,0 3.0039,-3.3151 3.142,-3.3491 l 6.0421,-2.4169 -1.9334,-2.2097"
         style="fill:none;stroke:#000000;stroke-width:1.79449618px;stroke-linecap:butt;stroke-linejoin:miter;stroke-opacity:1;display:inline" />
    </g>
    <g
       transform="matrix(0.55725948,0,0,0.55725948,154.10837,128.69734)"
       id="g10967">
      <path
         sodipodi:nodetypes="cccccc"
         inkscape:connector-curvature="0"
         id="path10969"
         d="m 236.78052,518.96161 4.461,-4.1823 304.8351,0 0,304.83525 -4.1765,4.4836 -300.6586,-4.4836"
         style="color:#000000;fill:#976629;fill-opacity:1;stroke:none;stroke-width:1px;marker:none;visibility:visible;display:inline;overflow:visible;enable-background:accumulate" />
      <path
         inkscape:connector-curvature="0"
         id="path10971"
         d="m 236.78042,519.24031 304.8352,0 0,304.83525 -304.8352,0 z"
         style="color:#000000;fill:#976629;fill-opacity:1;stroke:none;stroke-width:1px;marker:none;visibility:visible;display:inline;overflow:visible;enable-background:accumulate" />
      <path
         sodipodi:nodetypes="ccccccccc"
         inkscape:connector-curvature="0"
         id="path10973"
         d="m 527.95062,532.90521 0,277.50525 -0.2978,0 -277.2074,0 0,-0.702 0,-276.80325 0.4035,0 276.4524,0 z"
         style="color:#000000;fill:url(#radialGradient10993);fill-opacity:1;stroke:none;stroke-width:1px;marker:none;visibility:visible;display:inline;overflow:visible;enable-background:accumulate" />
      <path
         sodipodi:nodetypes="ccccc"
         inkscape:connector-curvature="0"
         id="path10975"
         d="m 236.78062,518.96151 4.4609,-4.1822 304.8352,0 0,304.83525 -4.3312,4.6162"
         style="color:#000000;fill:none;stroke:#000000;stroke-width:1.79449618px;stroke-opacity:1;marker:none;visibility:visible;display:inline;overflow:visible;enable-background:accumulate" />
      <path
         inkscape:connector-curvature="0"
         id="path10977"
         d="m 541.61572,824.07556 -304.8353,0 0,-304.83525 304.8353,0 0,304.83525"
         style="color:#000000;fill:none;stroke:#000000;stroke-width:1.79449618px;stroke-opacity:1;marker:none;visibility:visible;display:inline;overflow:visible;enable-background:accumulate" />
      <path
         style="fill:none;stroke:#000000;stroke-width:1.79449618px;stroke-linecap:butt;stroke-linejoin:miter;stroke-opacity:1;display:inline"
         d="m 541.60942,519.46631 4.371,-4.4727"
         id="path10979"
         inkscape:connector-curvature="0" />
      <path
         sodipodi:nodetypes="cccccccccccc"
         inkscape:connector-curvature="0"
         id="path10981"
         d="m 527.87452,810.63506 -277.6511,0 m 0,-291.13085 0,13.18 0,277.95085 0,13.2039 m 0,-291.15475 277.9494,0 m 0,291.22815 0,-13.2773 0,-277.95085 0,-13.183"
         style="color:#000000;fill:none;stroke:#000000;stroke-width:1.79449618px;stroke-opacity:1;marker:none;visibility:visible;display:inline;overflow:visible;enable-background:accumulate" />
      <path
         inkscape:connector-curvature="0"
         id="path10983"
         d="m 385.45022,810.59606 4.889,3.0497 -5.1001,3.2778 5.0657,2.5337 -5.198,2.8713 3.8474,1.7511"
         style="fill:none;stroke:#000000;stroke-width:1.79449618px;stroke-linecap:butt;stroke-linejoin:miter;stroke-opacity:1;display:inline"
         sodipodi:nodetypes="cccccc" />
      <path
         style="fill:none;stroke:#000000;stroke-width:1.79449618px;stroke-linecap:butt;stroke-linejoin:miter;stroke-opacity:1;display:inline"
         d="m 236.87732,678.21846 3.125,3.7109 3.7109,-5.0781 3.2715,5.0293 3.2226,-4.9316"
         id="path10985"
         inkscape:connector-curvature="0"
         sodipodi:nodetypes="ccccc" />
      <path
         sodipodi:nodetypes="ccccc"
         inkscape:connector-curvature="0"
         id="path10987"
         d="m 528.21362,678.21846 3.125,3.7109 3.7109,-5.0781 3.2715,5.0293 3.2226,-4.9316"
         style="fill:none;stroke:#000000;stroke-width:1.79449618px;stroke-linecap:butt;stroke-linejoin:miter;stroke-opacity:1;display:inline" />
      <path
         style="fill:none;stroke:#000000;stroke-width:1.79449618px;stroke-linecap:butt;stroke-linejoin:miter;stroke-opacity:1;display:inline"
         d="m 541.69142,676.96336 2.3824,1.5537 2.0025,-5.5933"
         id="path10989"
         inkscape:connector-curvature="0"
         sodipodi:nodetypes="ccc" />
      <path
         style="fill:none;stroke:#000000;stroke-width:1.79449618px;stroke-linecap:butt;stroke-linejoin:miter;stroke-opacity:1;display:inline"
         d="m 387.49522,532.64181 2.3133,-1.1393 -4.1777,-2.5205 4.4539,-3.1764 -4.5921,-3.0384 c 0,0 3.0039,-3.3151 3.142,-3.3491 l 6.0421,-2.4169 -1.9334,-2.2097"
         id="path10991"
         inkscape:connector-curvature="0" />
    </g>
    <g
       id="g10995"
       transform="matrix(0.55725948,0,0,0.55725948,351.08814,128.69734)">
      <path
         style="color:#000000;fill:#976629;fill-opacity:1;stroke:none;stroke-width:1px;marker:none;visibility:visible;display:inline;overflow:visible;enable-background:accumulate"
         d="m 236.78052,518.96161 4.461,-4.1823 304.8351,0 0,304.83525 -4.1765,4.4836 -300.6586,-4.4836"
         id="path10997"
         inkscape:connector-curvature="0"
         sodipodi:nodetypes="cccccc" />
      <path
         style="color:#000000;fill:#976629;fill-opacity:1;stroke:none;stroke-width:1px;marker:none;visibility:visible;display:inline;overflow:visible;enable-background:accumulate"
         d="m 236.78042,519.24031 304.8352,0 0,304.83525 -304.8352,0 z"
         id="path10999"
         inkscape:connector-curvature="0" />
      <path
         style="color:#000000;fill:url(#radialGradient11021);fill-opacity:1;stroke:none;stroke-width:1px;marker:none;visibility:visible;display:inline;overflow:visible;enable-background:accumulate"
         d="m 527.95062,532.90521 0,277.50525 -0.2978,0 -277.2074,0 0,-0.702 0,-276.80325 0.4035,0 276.4524,0 z"
         id="path11001"
         inkscape:connector-curvature="0"
         sodipodi:nodetypes="ccccccccc" />
      <path
         style="color:#000000;fill:none;stroke:#000000;stroke-width:1.79449618px;stroke-opacity:1;marker:none;visibility:visible;display:inline;overflow:visible;enable-background:accumulate"
         d="m 236.78062,518.96151 4.4609,-4.1822 304.8352,0 0,304.83525 -4.3312,4.6162"
         id="path11003"
         inkscape:connector-curvature="0"
         sodipodi:nodetypes="ccccc" />
      <path
         style="color:#000000;fill:none;stroke:#000000;stroke-width:1.79449618px;stroke-opacity:1;marker:none;visibility:visible;display:inline;overflow:visible;enable-background:accumulate"
         d="m 541.61572,824.07556 -304.8353,0 0,-304.83525 304.8353,0 0,304.83525"
         id="path11005"
         inkscape:connector-curvature="0" />
      <path
         inkscape:connector-curvature="0"
         id="path11007"
         d="m 541.60942,519.46631 4.371,-4.4727"
         style="fill:none;stroke:#000000;stroke-width:1.79449618px;stroke-linecap:butt;stroke-linejoin:miter;stroke-opacity:1;display:inline" />
      <path
         style="color:#000000;fill:none;stroke:#000000;stroke-width:1.79449618px;stroke-opacity:1;marker:none;visibility:visible;display:inline;overflow:visible;enable-background:accumulate"
         d="m 527.87452,810.63506 -277.6511,0 m 0,-291.13085 0,13.18 0,277.95085 0,13.2039 m 0,-291.15475 277.9494,0 m 0,291.22815 0,-13.2773 0,-277.95085 0,-13.183"
         id="path11009"
         inkscape:connector-curvature="0"
         sodipodi:nodetypes="cccccccccccc" />
      <path
         sodipodi:nodetypes="cccccc"
         style="fill:none;stroke:#000000;stroke-width:1.79449618px;stroke-linecap:butt;stroke-linejoin:miter;stroke-opacity:1;display:inline"
         d="m 385.45022,810.59606 4.889,3.0497 -5.1001,3.2778 5.0657,2.5337 -5.198,2.8713 3.8474,1.7511"
         id="path11011"
         inkscape:connector-curvature="0" />
      <path
         sodipodi:nodetypes="ccccc"
         inkscape:connector-curvature="0"
         id="path11013"
         d="m 236.87732,678.21846 3.125,3.7109 3.7109,-5.0781 3.2715,5.0293 3.2226,-4.9316"
         style="fill:none;stroke:#000000;stroke-width:1.79449618px;stroke-linecap:butt;stroke-linejoin:miter;stroke-opacity:1;display:inline" />
      <path
         style="fill:none;stroke:#000000;stroke-width:1.79449618px;stroke-linecap:butt;stroke-linejoin:miter;stroke-opacity:1;display:inline"
         d="m 528.21362,678.21846 3.125,3.7109 3.7109,-5.0781 3.2715,5.0293 3.2226,-4.9316"
         id="path11015"
         inkscape:connector-curvature="0"
         sodipodi:nodetypes="ccccc" />
      <path
         sodipodi:nodetypes="ccc"
         inkscape:connector-curvature="0"
         id="path11017"
         d="m 541.69142,676.96336 2.3824,1.5537 2.0025,-5.5933"
         style="fill:none;stroke:#000000;stroke-width:1.79449618px;stroke-linecap:butt;stroke-linejoin:miter;stroke-opacity:1;display:inline" />
      <path
         inkscape:connector-curvature="0"
         id="path11019"
         d="m 387.49522,532.64181 2.3133,-1.1393 -4.1777,-2.5205 4.4539,-3.1764 -4.5921,-3.0384 c 0,0 3.0039,-3.3151 3.142,-3.3491 l 6.0421,-2.4169 -1.9334,-2.2097"
         style="fill:none;stroke:#000000;stroke-width:1.79449618px;stroke-linecap:butt;stroke-linejoin:miter;stroke-opacity:1;display:inline" />
    </g>
  </g>
</svg>
