<?xml version="1.0" encoding="UTF-8" standalone="no"?>
<!-- Created with Inkscape (http://www.inkscape.org/) -->

<svg
   xmlns:dc="http://purl.org/dc/elements/1.1/"
   xmlns:cc="http://creativecommons.org/ns#"
   xmlns:rdf="http://www.w3.org/1999/02/22-rdf-syntax-ns#"
   xmlns:svg="http://www.w3.org/2000/svg"
   xmlns="http://www.w3.org/2000/svg"
   xmlns:xlink="http://www.w3.org/1999/xlink"
   xmlns:sodipodi="http://sodipodi.sourceforge.net/DTD/sodipodi-0.dtd"
   xmlns:inkscape="http://www.inkscape.org/namespaces/inkscape"
   width="210mm"
   height="297mm"
   id="svg9720"
   version="1.1"
   inkscape:version="0.48.4 r9939"
   sodipodi:docname="新規ドキュメント 45">
  <defs
     id="defs9722">
    <radialGradient
       inkscape:collect="always"
       xlink:href="#linearGradient4079"
       id="radialGradient3384"
       gradientUnits="userSpaceOnUse"
       gradientTransform="matrix(2.3154159,-0.6660105,0.28102647,0.97700121,-2397.5572,591.42244)"
       cx="1088.6093"
       cy="985.96783"
       fx="1088.6093"
       fy="985.96783"
       r="136.48488" />
    <linearGradient
       id="linearGradient4079">
      <stop
         style="stop-color:#858585;stop-opacity:1;"
         offset="0"
         id="stop4081" />
      <stop
         style="stop-color:#e4e4e4;stop-opacity:1;"
         offset="1"
         id="stop4083" />
    </linearGradient>
    <radialGradient
       inkscape:collect="always"
       xlink:href="#linearGradient4079"
       id="radialGradient9983"
       gradientUnits="userSpaceOnUse"
       gradientTransform="matrix(2.3154159,-0.6660105,0.28102647,0.97700121,-2397.5572,591.42244)"
       cx="1088.6093"
       cy="985.96783"
       fx="1088.6093"
       fy="985.96783"
       r="136.48488" />
  </defs>
  <sodipodi:namedview
     id="base"
     pagecolor="#ffffff"
     bordercolor="#666666"
     borderopacity="1.0"
     inkscape:pageopacity="0.0"
     inkscape:pageshadow="2"
     inkscape:zoom="0.7"
     inkscape:cx="339.13126"
     inkscape:cy="457.52396"
     inkscape:document-units="px"
     inkscape:current-layer="layer1"
     showgrid="false"
     inkscape:window-width="1012"
     inkscape:window-height="754"
     inkscape:window-x="126"
     inkscape:window-y="63"
     inkscape:window-maximized="0" />
  <metadata
     id="metadata9725">
    <rdf:RDF>
      <cc:Work
         rdf:about="">
        <dc:format>image/svg+xml</dc:format>
        <dc:type
           rdf:resource="http://purl.org/dc/dcmitype/StillImage" />
        <dc:title></dc:title>
      </cc:Work>
    </rdf:RDF>
  </metadata>
  <g
     inkscape:label="レイヤー 1"
     inkscape:groupmode="layer"
     id="layer1">
    <g
       id="g9969"
       transform="translate(145.71428,-253.2049)">
      <path
         style="color:#000000;fill:#976629;fill-opacity:1;stroke:none;stroke-width:1px;marker:none;visibility:visible;display:inline;overflow:visible;enable-background:accumulate"
         d="m 247.69139,676.99264 4.461,-4.1823 304.8351,0 0,304.83525 -4.1765,4.4836 -300.6586,-4.4836"
         id="path3358"
         inkscape:connector-curvature="0"
         sodipodi:nodetypes="cccccc" />
      <path
         style="color:#000000;fill:#976629;fill-opacity:1;stroke:none;stroke-width:1px;marker:none;visibility:visible;display:inline;overflow:visible;enable-background:accumulate"
         d="m 247.69129,677.27134 304.8352,0 0,304.83525 -304.8352,0 z"
         id="path3360"
         inkscape:connector-curvature="0" />
      <path
         style="color:#000000;fill:url(#radialGradient9983);fill-opacity:1;stroke:none;stroke-width:1px;marker:none;visibility:visible;display:inline;overflow:visible;enable-background:accumulate"
         d="m 538.86149,690.93624 0,277.50525 -0.2978,0 -277.2074,0 0,-0.702 0,-276.80325 0.4035,0 276.4524,0 z"
         id="path3362"
         inkscape:connector-curvature="0"
         sodipodi:nodetypes="ccccccccc" />
      <path
         style="color:#000000;fill:none;stroke:#000000;stroke-width:1px;stroke-opacity:1;marker:none;visibility:visible;display:inline;overflow:visible;enable-background:accumulate"
         d="m 247.69149,676.99254 4.4609,-4.1822 304.8352,0 0,304.83525 -4.3312,4.6162"
         id="path3364"
         inkscape:connector-curvature="0"
         sodipodi:nodetypes="ccccc" />
      <path
         style="color:#000000;fill:none;stroke:#000000;stroke-width:1px;stroke-opacity:1;marker:none;visibility:visible;display:inline;overflow:visible;enable-background:accumulate"
         d="m 552.52659,982.10659 -304.8353,0 0,-304.83525 304.8353,0 0,304.83525"
         id="path3366"
         inkscape:connector-curvature="0" />
      <path
         inkscape:connector-curvature="0"
         id="path3368"
         d="m 552.52029,677.49734 4.371,-4.4727"
         style="fill:none;stroke:#000000;stroke-width:1px;stroke-linecap:butt;stroke-linejoin:miter;stroke-opacity:1;display:inline" />
      <path
         style="color:#000000;fill:none;stroke:#000000;stroke-width:1px;stroke-opacity:1;marker:none;visibility:visible;display:inline;overflow:visible;enable-background:accumulate"
         d="m 538.78539,968.66609 -277.6511,0 m 0,-291.13085 0,13.18 0,277.95085 0,13.2039 m 0,-291.15475 277.9494,0 m 0,291.22815 0,-13.2773 0,-277.95085 0,-13.183"
         id="path3370"
         inkscape:connector-curvature="0"
         sodipodi:nodetypes="cccccccccccc" />
      <path
         sodipodi:nodetypes="cccccc"
         style="fill:none;stroke:#000000;stroke-width:1px;stroke-linecap:butt;stroke-linejoin:miter;stroke-opacity:1;display:inline"
         d="m 396.36109,968.62709 4.889,3.0497 -5.1001,3.2778 5.0657,2.5337 -5.198,2.8713 3.8474,1.7511"
         id="path3372"
         inkscape:connector-curvature="0" />
      <path
         sodipodi:nodetypes="ccccc"
         inkscape:connector-curvature="0"
         id="path4334"
         d="m 247.78819,836.24949 3.125,3.7109 3.7109,-5.0781 3.2715,5.0293 3.2226,-4.9316"
         style="fill:none;stroke:#000000;stroke-width:1px;stroke-linecap:butt;stroke-linejoin:miter;stroke-opacity:1;display:inline" />
      <path
         style="fill:none;stroke:#000000;stroke-width:1px;stroke-linecap:butt;stroke-linejoin:miter;stroke-opacity:1;display:inline"
         d="m 539.12449,836.24949 3.125,3.7109 3.7109,-5.0781 3.2715,5.0293 3.2226,-4.9316"
         id="path4336"
         inkscape:connector-curvature="0"
         sodipodi:nodetypes="ccccc" />
      <path
         sodipodi:nodetypes="ccc"
         inkscape:connector-curvature="0"
         id="path4338"
         d="m 552.60229,834.99439 2.3824,1.5537 2.0025,-5.5933"
         style="fill:none;stroke:#000000;stroke-width:1px;stroke-linecap:butt;stroke-linejoin:miter;stroke-opacity:1;display:inline" />
      <path
         inkscape:connector-curvature="0"
         id="path4340"
         d="m 398.40609,690.67284 2.3133,-1.1393 -4.1777,-2.5205 4.4539,-3.1764 -4.5921,-3.0384 c 0,0 3.0039,-3.3151 3.142,-3.3491 l 6.0421,-2.4169 -1.9334,-2.2097"
         style="fill:none;stroke:#000000;stroke-width:1px;stroke-linecap:butt;stroke-linejoin:miter;stroke-opacity:1;display:inline" />
    </g>
    <g
       id="g9923"
       transform="translate(-195.09281,125.71429)">
      <path
         inkscape:connector-curvature="0"
         id="path3276"
         d="m 248.68529,299.22573 5.0171,-5.31193 304.2857,0 0,304.28574 -4.4534,5.4526 -0.4294,0.016 -304.2857,0 0,-304.28575"
         style="color:#000000;fill:#daab81;fill-opacity:1;stroke:none;stroke-width:1px;marker:none;visibility:visible;display:inline;overflow:visible;enable-background:accumulate" />
      <path
         inkscape:connector-curvature="0"
         id="path3294-5"
         d="m 522.90129,323.97826 0,111.97768 3.5156,-1.3672 3.125,0.9766 2.9297,-1.5625 4.1015,1.1719 4.2969,-1.9531 3.711,2.1484 2.9296,-2.1484 2.9297,1.3671 0,-111.00111 -3.125,1.36719 -2.9297,-1.5625 -3.3203,1.95313 -2.3437,-2.34375 -3.9063,2.73437 -3.3203,-2.92969 -3.9062,2.14844 -2.3438,-2.34375 z"
         style="fill:#976629;fill-opacity:1;stroke:#000000;stroke-opacity:1;display:inline" />
      <path
         inkscape:connector-curvature="0"
         id="path3296-3"
         d="m 522.90129,463.18994 0,111.9777 3.5156,-1.3672 3.125,0.9766 2.9297,-1.5625 4.1015,1.1718 4.2969,-1.9531 3.711,2.1484 2.9296,-2.1484 2.9297,1.3672 0,-111.0012 -3.125,1.3672 -2.9297,-1.5625 -3.3203,1.9532 -2.3437,-2.3438 -3.9063,2.7344 -3.3203,-2.9297 -3.9062,2.1484 -2.3438,-2.3437 z"
         style="fill:#976629;fill-opacity:1;stroke:#000000;stroke-opacity:1;display:inline" />
      <path
         inkscape:connector-curvature="0"
         id="path3290-6"
         d="m 251.75429,323.97826 0,111.97768 3.5156,-1.3672 3.125,0.9766 2.9297,-1.5625 4.1016,1.1719 4.2968,-1.9531 3.711,2.1484 2.9297,-2.1484 2.9297,1.3671 0,-111.00111 -3.125,1.36719 -2.9297,-1.5625 -3.3203,1.95313 -2.3438,-2.34375 -3.9062,2.73437 -3.3204,-2.92969 -3.9062,2.14844 -2.3438,-2.34375 z"
         style="fill:#976629;fill-opacity:1;stroke:#000000;stroke-opacity:1;display:inline" />
      <path
         inkscape:connector-curvature="0"
         id="path3298-5"
         d="m 526.00839,302.34198 -111.9777,0 1.3672,3.51562 -0.9766,3.125 1.5625,2.92969 -1.1719,4.10156 1.9532,4.29688 -2.1485,3.71094 2.1485,2.92968 -1.3672,2.92969 111.0011,0 -1.3672,-3.125 1.5625,-2.92969 -1.9531,-3.32031 2.3438,-2.34375 -2.7344,-3.90625 2.9297,-3.32031 -2.1485,-3.90625 2.3438,-2.34375 z"
         style="fill:#976629;fill-opacity:1;stroke:#000000;stroke-opacity:1;display:inline" />
      <path
         inkscape:connector-curvature="0"
         id="path3292-7"
         d="m 251.75429,463.18994 0,111.9777 3.5156,-1.3672 3.125,0.9766 2.9297,-1.5625 4.1016,1.1718 4.2968,-1.9531 3.711,2.1484 2.9297,-2.1484 2.9297,1.3672 0,-111.0012 -3.125,1.3672 -2.9297,-1.5625 -3.3203,1.9532 -2.3438,-2.3438 -3.9062,2.7344 -3.3204,-2.9297 -3.9062,2.1484 -2.3438,-2.3437 z"
         style="fill:#976629;fill-opacity:1;stroke:#000000;stroke-opacity:1;display:inline" />
      <path
         inkscape:connector-curvature="0"
         id="path3300-6"
         d="m 386.79669,302.34198 -111.9777,0 1.3672,3.51562 -0.9765,3.125 1.5625,2.92969 -1.1719,4.10156 1.9531,4.29688 -2.1484,3.71094 2.1484,2.92968 -1.3672,2.92969 111.0012,0 -1.3672,-3.125 1.5625,-2.92969 -1.9531,-3.32031 2.3437,-2.34375 -2.7344,-3.90625 2.9297,-3.32031 -2.1484,-3.90625 2.3437,-2.34375 z"
         style="fill:#976629;fill-opacity:1;stroke:#000000;stroke-opacity:1;display:inline" />
      <path
         inkscape:connector-curvature="0"
         id="path3302-2"
         d="m 526.00839,573.48894 -111.9777,0 1.3672,3.5156 -0.9766,3.125 1.5625,2.9297 -1.1719,4.1016 1.9532,4.2969 -2.1485,3.7109 2.1485,2.9297 -1.3672,2.9297 111.0011,0 -1.3672,-3.125 1.5625,-2.9297 -1.9531,-3.3203 2.3438,-2.3438 -2.7344,-3.9062 2.9297,-3.3203 -2.1485,-3.9063 2.3438,-2.3437 z"
         style="fill:#976629;fill-opacity:1;stroke:#000000;stroke-opacity:1;display:inline" />
      <path
         inkscape:connector-curvature="0"
         id="path3304-9"
         d="m 386.79669,573.48894 -111.9777,0 1.3672,3.5156 -0.9765,3.125 1.5625,2.9297 -1.1719,4.1016 1.9531,4.2969 -2.1484,3.7109 2.1484,2.9297 -1.3672,2.9297 111.0012,0 -1.3672,-3.125 1.5625,-2.9297 -1.9531,-3.3203 2.3437,-2.3438 -2.7344,-3.9062 2.9297,-3.3203 -2.1484,-3.9063 2.3437,-2.3437 z"
         style="fill:#976629;fill-opacity:1;stroke:#000000;stroke-opacity:1;display:inline" />
      <path
         inkscape:connector-curvature="0"
         id="path4260"
         d="m 553.10529,603.66834 -304.2857,0 0,-18.2301 286.0556,0 -10e-5,-0.6792 0,-265.62721 0,-1.51918 -286.0555,0 -0.1343,-18.38692 5.0171,-5.31193 304.2857,0 0,304.28574 -4.7707,5.6479"
         style="color:#000000;fill:#976629;fill-opacity:1;stroke:none;stroke-width:1px;marker:none;visibility:visible;display:inline;overflow:visible;enable-background:accumulate" />
      <path
         sodipodi:nodetypes="ccccc"
         inkscape:connector-curvature="0"
         id="path3356-0"
         d="m 267.04969,312.26828 0,278.65596 -18.2301,1.4193 0,-278.87171 z"
         style="color:#000000;fill:#976629;fill-opacity:1;stroke:none;stroke-width:1px;marker:none;visibility:visible;display:inline;overflow:visible;enable-background:accumulate" />
      <path
         style="color:#000000;fill:#daab81;fill-opacity:1;stroke:none;stroke-width:1px;marker:none;visibility:visible;display:inline;overflow:visible;enable-background:accumulate"
         d="m 248.68529,299.22573 5.0171,-5.31193 304.2857,0 0,304.28574 -4.4534,5.4526 -0.4294,0.016 -304.2857,0 0,-304.28575"
         id="path4991"
         inkscape:connector-curvature="0" />
      <path
         style="fill:#976629;fill-opacity:1;stroke:#000000;stroke-opacity:1;display:inline"
         d="m 522.90129,323.97826 0,111.97768 3.5156,-1.3672 3.125,0.9766 2.9297,-1.5625 4.1015,1.1719 4.2969,-1.9531 3.711,2.1484 2.9296,-2.1484 2.9297,1.3671 0,-111.00111 -3.125,1.36719 -2.9297,-1.5625 -3.3203,1.95313 -2.3437,-2.34375 -3.9063,2.73437 -3.3203,-2.92969 -3.9062,2.14844 -2.3438,-2.34375 z"
         id="path4993"
         inkscape:connector-curvature="0" />
      <path
         style="fill:#976629;fill-opacity:1;stroke:#000000;stroke-opacity:1;display:inline"
         d="m 522.90129,463.18994 0,111.9777 3.5156,-1.3672 3.125,0.9766 2.9297,-1.5625 4.1015,1.1718 4.2969,-1.9531 3.711,2.1484 2.9296,-2.1484 2.9297,1.3672 0,-111.0012 -3.125,1.3672 -2.9297,-1.5625 -3.3203,1.9532 -2.3437,-2.3438 -3.9063,2.7344 -3.3203,-2.9297 -3.9062,2.1484 -2.3438,-2.3437 z"
         id="path4995"
         inkscape:connector-curvature="0" />
      <path
         style="fill:#976629;fill-opacity:1;stroke:#000000;stroke-opacity:1;display:inline"
         d="m 251.75429,323.97826 0,111.97768 3.5156,-1.3672 3.125,0.9766 2.9297,-1.5625 4.1016,1.1719 4.2968,-1.9531 3.711,2.1484 2.9297,-2.1484 2.9297,1.3671 0,-111.00111 -3.125,1.36719 -2.9297,-1.5625 -3.3203,1.95313 -2.3438,-2.34375 -3.9062,2.73437 -3.3204,-2.92969 -3.9062,2.14844 -2.3438,-2.34375 z"
         id="path4997"
         inkscape:connector-curvature="0" />
      <path
         style="fill:#976629;fill-opacity:1;stroke:#000000;stroke-opacity:1;display:inline"
         d="m 526.00839,302.34198 -111.9777,0 1.3672,3.51562 -0.9766,3.125 1.5625,2.92969 -1.1719,4.10156 1.9532,4.29688 -2.1485,3.71094 2.1485,2.92968 -1.3672,2.92969 111.0011,0 -1.3672,-3.125 1.5625,-2.92969 -1.9531,-3.32031 2.3438,-2.34375 -2.7344,-3.90625 2.9297,-3.32031 -2.1485,-3.90625 2.3438,-2.34375 z"
         id="path4999"
         inkscape:connector-curvature="0" />
      <path
         style="fill:#976629;fill-opacity:1;stroke:#000000;stroke-opacity:1;display:inline"
         d="m 251.75429,463.18994 0,111.9777 3.5156,-1.3672 3.125,0.9766 2.9297,-1.5625 4.1016,1.1718 4.2968,-1.9531 3.711,2.1484 2.9297,-2.1484 2.9297,1.3672 0,-111.0012 -3.125,1.3672 -2.9297,-1.5625 -3.3203,1.9532 -2.3438,-2.3438 -3.9062,2.7344 -3.3204,-2.9297 -3.9062,2.1484 -2.3438,-2.3437 z"
         id="path5001"
         inkscape:connector-curvature="0" />
      <path
         style="fill:#976629;fill-opacity:1;stroke:#000000;stroke-opacity:1;display:inline"
         d="m 386.79669,302.34198 -111.9777,0 1.3672,3.51562 -0.9765,3.125 1.5625,2.92969 -1.1719,4.10156 1.9531,4.29688 -2.1484,3.71094 2.1484,2.92968 -1.3672,2.92969 111.0012,0 -1.3672,-3.125 1.5625,-2.92969 -1.9531,-3.32031 2.3437,-2.34375 -2.7344,-3.90625 2.9297,-3.32031 -2.1484,-3.90625 2.3437,-2.34375 z"
         id="path5003"
         inkscape:connector-curvature="0" />
      <path
         style="fill:#976629;fill-opacity:1;stroke:#000000;stroke-opacity:1;display:inline"
         d="m 526.00839,573.48894 -111.9777,0 1.3672,3.5156 -0.9766,3.125 1.5625,2.9297 -1.1719,4.1016 1.9532,4.2969 -2.1485,3.7109 2.1485,2.9297 -1.3672,2.9297 111.0011,0 -1.3672,-3.125 1.5625,-2.9297 -1.9531,-3.3203 2.3438,-2.3438 -2.7344,-3.9062 2.9297,-3.3203 -2.1485,-3.9063 2.3438,-2.3437 z"
         id="path5005"
         inkscape:connector-curvature="0" />
      <path
         style="fill:#976629;fill-opacity:1;stroke:#000000;stroke-opacity:1;display:inline"
         d="m 386.79669,573.48894 -111.9777,0 1.3672,3.5156 -0.9765,3.125 1.5625,2.9297 -1.1719,4.1016 1.9531,4.2969 -2.1484,3.7109 2.1484,2.9297 -1.3672,2.9297 111.0012,0 -1.3672,-3.125 1.5625,-2.9297 -1.9531,-3.3203 2.3437,-2.3438 -2.7344,-3.9062 2.9297,-3.3203 -2.1484,-3.9063 2.3437,-2.3437 z"
         id="path5007"
         inkscape:connector-curvature="0" />
      <path
         style="color:#000000;fill:#976629;fill-opacity:1;stroke:none;stroke-width:1px;marker:none;visibility:visible;display:inline;overflow:visible;enable-background:accumulate"
         d="m 553.10529,603.66834 -304.2857,0 0,-18.2301 286.0556,0 -10e-5,-0.6792 0,-265.62721 0,-1.51918 -286.0555,0 -0.1343,-18.38692 5.0171,-5.31193 304.2857,0 0,304.28574 -4.7707,5.6479"
         id="path5009"
         inkscape:connector-curvature="0" />
      <path
         style="color:#000000;fill:#976629;fill-opacity:1;stroke:none;stroke-width:1px;marker:none;visibility:visible;display:inline;overflow:visible;enable-background:accumulate"
         d="m 267.04969,312.26828 0,278.65596 -18.2301,1.4193 0,-278.87171 z"
         id="path5011"
         inkscape:connector-curvature="0"
         sodipodi:nodetypes="ccccc" />
      <path
         inkscape:connector-curvature="0"
         id="path3280"
         d="m 248.81959,299.38255 304.2857,0 0,304.28579 -304.2857,0 z"
         style="color:#000000;fill:none;stroke:#000000;stroke-width:1px;stroke-opacity:1;marker:none;visibility:visible;display:inline;overflow:visible;enable-background:accumulate" />
      <path
         style="color:#000000;fill:none;stroke:#000000;stroke-width:1px;stroke-opacity:1;marker:none;visibility:visible;display:inline;overflow:visible;enable-background:accumulate"
         d="m 248.68529,299.22573 5.0171,-5.31193 304.2857,0 0,304.28574 -4.7707,5.6479"
         id="path3306"
         inkscape:connector-curvature="0"
         sodipodi:nodetypes="ccccc" />
      <path
         style="fill:none;stroke:#000000;stroke-width:1px;stroke-linecap:butt;stroke-linejoin:miter;stroke-opacity:1;display:inline"
         d="m 557.93069,294.06215 -4.7851,5.17578"
         id="path3308"
         inkscape:connector-curvature="0" />
      <path
         sodipodi:nodetypes="ccccc"
         style="fill:none;stroke:#000000;stroke-width:1px;stroke-linecap:butt;stroke-linejoin:miter;stroke-opacity:1;display:inline"
         d="m 267.19989,518.38634 1.733,1.2549 3.4527,-2.7621 3.4527,2.624 3.3146,-1.9335"
         id="path3338"
         inkscape:connector-curvature="0" />
      <path
         sodipodi:nodetypes="cccccccc"
         style="color:#000000;fill:none;stroke:#000000;stroke-width:1px;stroke-opacity:1;marker:none;visibility:visible;display:inline;overflow:visible;enable-background:accumulate"
         d="m 534.87519,585.43824 -267.8255,0 m 0,18.2991 0,-303.87141 m 0.069,17.74672 267.7564,0 m 0,-18.16104 0,304.22813"
         id="path3356"
         inkscape:connector-curvature="0" />
      <path
         inkscape:connector-curvature="0"
         id="path3240"
         d="m 248.77329,446.55964 2.9002,2.9003 2.2097,-2.6241 2.7621,2.7622 2.7622,-2.6241 2.624,2.6241 2.4859,-3.0384 2.3479,2.0716"
         style="fill:none;stroke:#000000;stroke-width:1px;stroke-linecap:butt;stroke-linejoin:miter;stroke-opacity:1;display:inline" />
      <path
         style="fill:none;stroke:#000000;stroke-width:1px;stroke-linecap:butt;stroke-linejoin:miter;stroke-opacity:1;display:inline"
         d="m 534.86149,446.55964 2.9002,2.9003 2.2097,-2.6241 2.7621,2.7622 2.7622,-2.6241 2.624,2.6241 2.4859,-3.0384 2.3479,2.0716"
         id="path3242"
         inkscape:connector-curvature="0" />
      <path
         sodipodi:nodetypes="ccccc"
         inkscape:connector-curvature="0"
         id="path3244"
         d="m 553.05109,448.39904 1.2085,-5.5933 1.4847,1.8299 1.1048,-5.5933 1.1739,1.2775"
         style="fill:none;stroke:#000000;stroke-width:1px;stroke-linecap:butt;stroke-linejoin:miter;stroke-opacity:1;display:inline" />
      <path
         style="fill:none;stroke:#000000;stroke-width:1px;stroke-linecap:butt;stroke-linejoin:miter;stroke-opacity:1;display:inline"
         d="m 400.82099,585.40664 -2.9003,2.9002 2.6241,2.2097 -2.7622,2.7621 2.6241,2.7622 -2.6241,2.624 3.0384,2.4859 -2.0716,2.3479"
         id="path3242-3"
         inkscape:connector-curvature="0" />
      <path
         inkscape:connector-curvature="0"
         id="path3264"
         d="m 400.82099,299.3182 -2.9003,2.9002 2.6241,2.2097 -2.7622,2.7621 2.6241,2.7622 -2.6241,2.624 3.0384,2.4859 -2.0716,2.3479"
         style="fill:none;stroke:#000000;stroke-width:1px;stroke-linecap:butt;stroke-linejoin:miter;stroke-opacity:1;display:inline" />
      <path
         sodipodi:nodetypes="ccccc"
         inkscape:connector-curvature="0"
         id="path3266"
         d="m 400.54699,299.43314 3.7354,-1.83105 -2.3438,-1.29395 4.8828,-1.24511 -2.124,-1.17188"
         style="fill:none;stroke:#000000;stroke-width:1px;stroke-linecap:butt;stroke-linejoin:miter;stroke-opacity:1;display:inline" />
      <path
         style="color:#000000;fill:none;stroke:#000000;stroke-width:1px;stroke-opacity:1;marker:none;visibility:visible;display:inline;overflow:visible;enable-background:accumulate"
         d="m 248.81959,299.38255 304.2857,0 0,304.28579 -304.2857,0 z"
         id="path5013"
         inkscape:connector-curvature="0" />
      <path
         sodipodi:nodetypes="ccccc"
         inkscape:connector-curvature="0"
         id="path5015"
         d="m 248.68529,299.22573 5.0171,-5.31193 304.2857,0 0,304.28574 -4.7707,5.6479"
         style="color:#000000;fill:none;stroke:#000000;stroke-width:1px;stroke-opacity:1;marker:none;visibility:visible;display:inline;overflow:visible;enable-background:accumulate" />
      <path
         inkscape:connector-curvature="0"
         id="path5017"
         d="m 557.93069,294.06215 -4.7851,5.17578"
         style="fill:none;stroke:#000000;stroke-width:1px;stroke-linecap:butt;stroke-linejoin:miter;stroke-opacity:1;display:inline" />
      <path
         inkscape:connector-curvature="0"
         id="path5019"
         d="m 267.19989,518.38634 1.733,1.2549 3.4527,-2.7621 3.4527,2.624 3.3146,-1.9335"
         style="fill:none;stroke:#000000;stroke-width:1px;stroke-linecap:butt;stroke-linejoin:miter;stroke-opacity:1;display:inline"
         sodipodi:nodetypes="ccccc" />
      <path
         inkscape:connector-curvature="0"
         id="path5021"
         d="m 534.87519,585.43824 -267.8255,0 m 0,18.2991 0,-303.87141 m 0.069,17.74672 267.7564,0 m 0,-18.16104 0,304.22813"
         style="color:#000000;fill:none;stroke:#000000;stroke-width:1px;stroke-opacity:1;marker:none;visibility:visible;display:inline;overflow:visible;enable-background:accumulate"
         sodipodi:nodetypes="cccccccc" />
      <path
         style="fill:none;stroke:#000000;stroke-width:1px;stroke-linecap:butt;stroke-linejoin:miter;stroke-opacity:1;display:inline"
         d="m 248.77329,446.55964 2.9002,2.9003 2.2097,-2.6241 2.7621,2.7622 2.7622,-2.6241 2.624,2.6241 2.4859,-3.0384 2.3479,2.0716"
         id="path5023"
         inkscape:connector-curvature="0" />
      <path
         inkscape:connector-curvature="0"
         id="path5025"
         d="m 534.86149,446.55964 2.9002,2.9003 2.2097,-2.6241 2.7621,2.7622 2.7622,-2.6241 2.624,2.6241 2.4859,-3.0384 2.3479,2.0716"
         style="fill:none;stroke:#000000;stroke-width:1px;stroke-linecap:butt;stroke-linejoin:miter;stroke-opacity:1;display:inline" />
      <path
         style="fill:none;stroke:#000000;stroke-width:1px;stroke-linecap:butt;stroke-linejoin:miter;stroke-opacity:1;display:inline"
         d="m 553.05109,448.39904 1.2085,-5.5933 1.4847,1.8299 1.1048,-5.5933 1.1739,1.2775"
         id="path5027"
         inkscape:connector-curvature="0"
         sodipodi:nodetypes="ccccc" />
      <path
         inkscape:connector-curvature="0"
         id="path5029"
         d="m 400.82099,585.40664 -2.9003,2.9002 2.6241,2.2097 -2.7622,2.7621 2.6241,2.7622 -2.6241,2.624 3.0384,2.4859 -2.0716,2.3479"
         style="fill:none;stroke:#000000;stroke-width:1px;stroke-linecap:butt;stroke-linejoin:miter;stroke-opacity:1;display:inline" />
      <path
         style="fill:none;stroke:#000000;stroke-width:1px;stroke-linecap:butt;stroke-linejoin:miter;stroke-opacity:1;display:inline"
         d="m 400.82099,299.3182 -2.9003,2.9002 2.6241,2.2097 -2.7622,2.7621 2.6241,2.7622 -2.6241,2.624 3.0384,2.4859 -2.0716,2.3479"
         id="path5031"
         inkscape:connector-curvature="0" />
      <path
         style="fill:none;stroke:#000000;stroke-width:1px;stroke-linecap:butt;stroke-linejoin:miter;stroke-opacity:1;display:inline"
         d="m 400.54699,299.43314 3.7354,-1.83105 -2.3438,-1.29395 4.8828,-1.24511 -2.124,-1.17188"
         id="path5033"
         inkscape:connector-curvature="0"
         sodipodi:nodetypes="ccccc" />
    </g>
    <text
       sodipodi:linespacing="125%"
       id="text9693"
       y="764.43433"
       x="518.01508"
       style="font-size:16px;font-style:normal;font-variant:normal;font-weight:normal;font-stretch:normal;line-height:125%;letter-spacing:0px;word-spacing:0px;fill:#0052ff;fill-opacity:1;stroke:none;font-family:'Takao Pゴシック';-inkscape-font-specification:Sans"
       xml:space="preserve"><tspan
         style="font-size:28px"
         y="764.43433"
         x="518.01508"
         id="tspan9695"
         sodipodi:role="line">表面</tspan></text>
    <text
       xml:space="preserve"
       style="font-size:16px;font-style:normal;font-variant:normal;font-weight:normal;font-stretch:normal;line-height:125%;letter-spacing:0px;word-spacing:0px;fill:#0052ff;fill-opacity:1;stroke:none;font-family:'Takao Pゴシック';-inkscape-font-specification:Sans"
       x="178.01508"
       y="764.43433"
       id="text10006"
       sodipodi:linespacing="125%"><tspan
         sodipodi:role="line"
         id="tspan10008"
         x="178.01508"
         y="764.43433"
         style="font-size:28px">裏面</tspan></text>
  </g>
</svg>
